<svg version="1.1" xmlns="http://www.w3.org/2000/svg" viewBox="0 0 3553.333333333334 2820.0000000000005" width="3553.333333333334" height="2820.0000000000005">
  <!-- svg-source:excalidraw -->

  <defs>
    <style>
      @font-face {
        font-family: "Virgil";
        src: url("https://excalidraw.com/Virgil.woff2");
      }
      @font-face {
        font-family: "Cascadia";
        src: url("https://excalidraw.com/Cascadia.woff2");
      }
    </style>
  </defs>
  <rect x="0" y="0" width="3553.333333333334" height="2820.0000000000005" fill="#ffffff"></rect><g stroke-linecap="round"><g transform="translate(135.92142343285832 934.3586022472646) rotate(0 173.37593854972488 48.19316803060792)"><path d="M0.09 -0.17 C125.13 0.67, 247.34 2.45, 345.94 0.19 M-0.34 0.47 C125.69 1.22, 252.43 1.3, 345.79 0.93 M345.99 -1.15 C347.4 15.44, 344.07 28.61, 347.61 58.47 M345.68 0.27 C345.36 15.98, 346.59 31.38, 345.25 60.04 M345.14 61.29 C337.64 67.71, 328.17 78.38, 310.97 96.04 M346.25 60.41 C336.36 69.92, 326.49 78.96, 311.1 94.43 M312.85 92.75 C311.89 80.38, 309.84 69.34, 308.94 60.27 M310.62 95.59 C309.73 83.19, 310.73 70.49, 308.97 58.86 M311.2 57.66 C319.33 58.92, 325.87 57.71, 343.05 58.41 M308.97 58.94 C321.67 59.41, 334.54 58.38, 343.87 58.83 M342.82 60.15 C336 69.67, 324.59 79.32, 310.85 95.05 M344.73 58.53 C332.9 69.46, 321.33 82.48, 310.24 95.57 M310.27 97.18 C243.02 98.17, 177.06 97.27, 0.62 93.57 M310.56 96.08 C208.94 93.27, 109.79 93.06, 1.22 94.48 M-0.85 94.09 C0.39 69.08, 1.92 45.85, 0.71 0.6 M0.81 93.71 C0.2 63.19, 0.8 31.45, -0.11 0.59" stroke="#000000" stroke-width="2" fill="none"></path></g></g><g stroke-linecap="round" transform="translate(10 10) rotate(0 1766.666666666667 1400.0000000000002)"><path d="M0 0 C1104.19 0, 2208.39 0, 3533.33 0 M0 0 C890.75 0, 1781.49 0, 3533.33 0 M3533.33 0 C3533.33 770.67, 3533.33 1541.33, 3533.33 2800 M3533.33 0 C3533.33 715.36, 3533.33 1430.72, 3533.33 2800 M3533.33 2800 C2797.64 2800, 2061.94 2800, 0 2800 M3533.33 2800 C2435.5 2800, 1337.66 2800, 0 2800 M0 2800 C0 1997.48, 0 1194.97, 0 0 M0 2800 C0 1730.26, 0 660.53, 0 0" stroke="#000000" stroke-width="4" fill="none"></path></g><g transform="translate(1402.1666666666715 502.17025678251366) rotate(0 567.8167693169044 100.13927771556519)"><text x="0" y="35.06963885778255" font-family="Virgil, Segoe UI Emoji" font-size="38.973124300111664px" fill="#343a40" text-anchor="start" style="white-space: pre;" direction="ltr">- Is the project's formatting style applied?</text><text x="0" y="85.1392777155651" font-family="Virgil, Segoe UI Emoji" font-size="38.973124300111664px" fill="#343a40" text-anchor="start" style="white-space: pre;" direction="ltr">- Does it adhere to agreed on naming conventions</text><text x="0" y="135.20891657334766" font-family="Virgil, Segoe UI Emoji" font-size="38.973124300111664px" fill="#343a40" text-anchor="start" style="white-space: pre;" direction="ltr">- Is it DRY?</text><text x="0" y="185.2785554311302" font-family="Virgil, Segoe UI Emoji" font-size="38.973124300111664px" fill="#343a40" text-anchor="start" style="white-space: pre;" direction="ltr">- Is the code sufficiently "readable" (method lengths, etc.)</text></g><g transform="translate(1894.333333333334 874.4013598060387) rotate(0 446 150.5)"><text x="0" y="35.166666666666664" font-family="Virgil, Segoe UI Emoji" font-size="38.973124300111664px" fill="#343a40" text-anchor="start" style="white-space: pre;" direction="ltr">- Are all tests passing?</text><text x="0" y="85.33333333333333" font-family="Virgil, Segoe UI Emoji" font-size="38.973124300111664px" fill="#343a40" text-anchor="start" style="white-space: pre;" direction="ltr">- Are new features reasonably tested?</text><text x="0" y="135.5" font-family="Virgil, Segoe UI Emoji" font-size="38.973124300111664px" fill="#343a40" text-anchor="start" style="white-space: pre;" direction="ltr">- Are corner cases tested?</text><text x="0" y="185.66666666666666" font-family="Virgil, Segoe UI Emoji" font-size="38.973124300111664px" fill="#343a40" text-anchor="start" style="white-space: pre;" direction="ltr">- Is it using unit tests where possible,</text><text x="0" y="235.83333333333331" font-family="Virgil, Segoe UI Emoji" font-size="38.973124300111664px" fill="#343a40" text-anchor="start" style="white-space: pre;" direction="ltr">  integration tests where necessary?</text><text x="0" y="286" font-family="Virgil, Segoe UI Emoji" font-size="38.973124300111664px" fill="#343a40" text-anchor="start" style="white-space: pre;" direction="ltr">- Are there tests for NFRs, e.g. performance?</text></g><g transform="translate(2085.5000000000036 1325.3274982905455) rotate(0 498 125.5)"><text x="0" y="35.2" font-family="Virgil, Segoe UI Emoji" font-size="38.973124300111664px" fill="#343a40" text-anchor="start" style="white-space: pre;" direction="ltr">- New features reasonably documented?</text><text x="0" y="85.4" font-family="Virgil, Segoe UI Emoji" font-size="38.973124300111664px" fill="#343a40" text-anchor="start" style="white-space: pre;" direction="ltr">- Are the relevant kinds of docs covered: README,</text><text x="0" y="135.60000000000002" font-family="Virgil, Segoe UI Emoji" font-size="38.973124300111664px" fill="#343a40" text-anchor="start" style="white-space: pre;" direction="ltr">  API docs, user guide, reference docs, etc.?</text><text x="0" y="185.8" font-family="Virgil, Segoe UI Emoji" font-size="38.973124300111664px" fill="#343a40" text-anchor="start" style="white-space: pre;" direction="ltr">- Are docs understandable, are there no significant</text><text x="0" y="236" font-family="Virgil, Segoe UI Emoji" font-size="38.973124300111664px" fill="#343a40" text-anchor="start" style="white-space: pre;" direction="ltr">  typos and grammar mistakes?</text></g><g transform="translate(2402.1666666666715 1724.4768543935693) rotate(0 519 251)"><text x="0" y="35.2" font-family="Virgil, Segoe UI Emoji" font-size="38.973124300111664px" fill="#343a40" text-anchor="start" style="white-space: pre;" direction="ltr">- Does it satisfy the original requirements?</text><text x="0" y="85.4" font-family="Virgil, Segoe UI Emoji" font-size="38.973124300111664px" fill="#343a40" text-anchor="start" style="white-space: pre;" direction="ltr">- Is it logically correct?</text><text x="0" y="135.60000000000002" font-family="Virgil, Segoe UI Emoji" font-size="38.973124300111664px" fill="#343a40" text-anchor="start" style="white-space: pre;" direction="ltr">- Is there no unnecessary complexity?</text><text x="0" y="185.8" font-family="Virgil, Segoe UI Emoji" font-size="38.973124300111664px" fill="#343a40" text-anchor="start" style="white-space: pre;" direction="ltr">- Is it robust (no concurrency issues,</text><text x="0" y="236" font-family="Virgil, Segoe UI Emoji" font-size="38.973124300111664px" fill="#343a40" text-anchor="start" style="white-space: pre;" direction="ltr">  proper error handling, etc.)?</text><text x="0" y="286.20000000000005" font-family="Virgil, Segoe UI Emoji" font-size="38.973124300111664px" fill="#343a40" text-anchor="start" style="white-space: pre;" direction="ltr">- Is it performant?</text><text x="0" y="336.40000000000003" font-family="Virgil, Segoe UI Emoji" font-size="38.973124300111664px" fill="#343a40" text-anchor="start" style="white-space: pre;" direction="ltr">- Is it secure (e.g. no SQL injections, etc.)</text><text x="0" y="386.6" font-family="Virgil, Segoe UI Emoji" font-size="38.973124300111664px" fill="#343a40" text-anchor="start" style="white-space: pre;" direction="ltr">- Is it observable (e.g. metrics, logging, tracing, etc.)?</text><text x="0" y="436.8" font-family="Virgil, Segoe UI Emoji" font-size="38.973124300111664px" fill="#343a40" text-anchor="start" style="white-space: pre;" direction="ltr">- Do newly added dependencies pull their weight? Is</text><text x="0" y="487" font-family="Virgil, Segoe UI Emoji" font-size="38.973124300111664px" fill="#343a40" text-anchor="start" style="white-space: pre;" direction="ltr">  their license acceptable?</text></g><g transform="translate(1791.2428523833114 2364.994724867622) rotate(0 651.1759518476993 174.83776595744553)"><text x="0" y="34.95364741641301" font-family="Virgil, Segoe UI Emoji" font-size="38.973124300111664px" fill="#343a40" text-anchor="start" style="white-space: pre;" direction="ltr">- API as small as possible, as large as needed?</text><text x="0" y="84.90729483282603" font-family="Virgil, Segoe UI Emoji" font-size="38.973124300111664px" fill="#343a40" text-anchor="start" style="white-space: pre;" direction="ltr">- Is there one way of doing one thing, not multiple ones?</text><text x="0" y="134.86094224923903" font-family="Virgil, Segoe UI Emoji" font-size="38.973124300111664px" fill="#343a40" text-anchor="start" style="white-space: pre;" direction="ltr">- Is it consistent, does it follow the principle of least surprises?</text><text x="0" y="184.81458966565205" font-family="Virgil, Segoe UI Emoji" font-size="38.973124300111664px" fill="#343a40" text-anchor="start" style="white-space: pre;" direction="ltr">- Clean split of API/internals, without internals leaking in the API?</text><text x="0" y="234.76823708206507" font-family="Virgil, Segoe UI Emoji" font-size="38.973124300111664px" fill="#343a40" text-anchor="start" style="white-space: pre;" direction="ltr">- Are there no breaking changes to user-facing parts</text><text x="0" y="284.72188449847806" font-family="Virgil, Segoe UI Emoji" font-size="38.973124300111664px" fill="#343a40" text-anchor="start" style="white-space: pre;" direction="ltr">  (API classes, configuration, metrics, log formats, etc.)?</text><text x="0" y="334.6755319148911" font-family="Virgil, Segoe UI Emoji" font-size="38.973124300111664px" fill="#343a40" text-anchor="start" style="white-space: pre;" direction="ltr">- Is a new API generally useful and not overly specific?</text></g><g stroke-linecap="round"><g transform="translate(771.401951138494 2191.3106789997587) rotate(0 800.1374190303611 -141.75560945189295)" fill-rule="evenodd"><path d="M159.35 -280.18 C159.35 -280.18, 159.35 -280.18, 159.35 -280.18 M159.35 -280.18 C159.35 -280.18, 159.35 -280.18, 159.35 -280.18 M138.32 -245 C145.86 -255.05, 155.82 -261.46, 168.21 -282.16 M139.59 -245.83 C151.05 -259.71, 162.02 -272.22, 169.54 -280.36 M120.2 -209.42 C141.33 -236.15, 160.76 -260.89, 180.61 -280.31 M120.19 -209.37 C143.32 -237.17, 167.75 -266.53, 180.31 -280.03 M100 -173.92 C126.09 -206.15, 150.28 -231.64, 192.03 -281.44 M100.17 -174.5 C133 -212.87, 166.03 -248.72, 191.55 -279.77 M77.87 -138.25 C103.18 -170.94, 133.9 -203.45, 203.21 -278.63 M78.63 -138.3 C113.58 -180.14, 149.93 -221.37, 201.94 -279.91 M59.34 -102.59 C108.01 -162.28, 157.99 -218.87, 212.76 -281.47 M58.85 -104.52 C119.6 -175, 180.92 -245.54, 212.14 -281.12 M39.84 -67.28 C78.63 -116.01, 121.1 -166.16, 222.24 -281.31 M38.1 -68.06 C89.41 -127.14, 141.43 -186.42, 222.39 -280.82 M18.94 -34.33 C82.52 -104.35, 145.14 -174.88, 234.45 -279.48 M19.26 -33.66 C96.18 -121.32, 173.45 -209.69, 233.83 -280.2 M0.3 -0.5 C73.46 -85.97, 148 -171.73, 243.37 -280.78 M0.84 -0.16 C76.87 -85.78, 151.2 -172.37, 244.1 -279.94 M10.3 -0.51 C91.62 -90.9, 171.27 -182.64, 254 -280.79 M11.45 0.13 C73.59 -73.72, 137.23 -147.23, 255.62 -280.15 M22.1 -0.63 C74.94 -57.75, 125.03 -114.87, 266.23 -280.11 M21.71 -0.05 C84.25 -75.53, 149.06 -149.77, 266.14 -280.65 M31.31 -0.66 C83.03 -58.9, 136.08 -117.39, 275.7 -281.51 M32.15 -0.26 C101.87 -78.91, 169.35 -157.12, 276.1 -280.68 M43.92 -0.23 C128.45 -99.28, 212.94 -196.78, 286.3 -280.51 M42.35 0.57 C96.39 -61.62, 149.36 -122.53, 287.26 -281.15 M54.55 0.92 C146.4 -104.89, 238.96 -213.46, 298.22 -280.45 M53.18 0.54 C142.02 -99.53, 230.18 -200.3, 297.63 -280.84 M63.92 0.15 C154.56 -102.97, 245.44 -208.62, 308.24 -280.48 M64.22 -0.07 C157.22 -109.34, 252.16 -217.23, 308.69 -281.16 M74.25 -1 C145.85 -80.79, 215.43 -160.85, 319.87 -280.79 M74.85 0.03 C123.96 -57.71, 174.28 -114.55, 319.11 -281.09 M84.67 0.41 C171.44 -99.92, 258.2 -198.26, 328.89 -280.48 M85.3 -0.29 C173.11 -102.24, 260.75 -203.4, 329.48 -280.67 M96.44 1.07 C151.57 -66.37, 208.99 -129.74, 340.92 -280.32 M96.51 0.39 C164.26 -79.13, 232.63 -157.74, 339.7 -280.9 M105.86 0.91 C154.84 -57.49, 204.79 -113.93, 349.54 -280.56 M106.28 0.12 C177.99 -78.44, 248.11 -159.4, 350.1 -281.1 M116.24 1.12 C201.71 -97.31, 286.78 -193.48, 361.21 -281.29 M117.07 0.63 C170.74 -61.87, 224.43 -123.91, 361.23 -281.21 M126.05 0.78 C196.84 -81.74, 266.99 -163.22, 371.01 -280.26 M127.41 0.7 C194.72 -76.1, 262.29 -153.31, 372.51 -280.43 M137.62 1.14 C189.63 -56.37, 240.47 -116.15, 382.57 -280.57 M137.64 0.96 C189.59 -59.12, 242.9 -119.67, 382.07 -280.72 M147.76 -0.21 C246.03 -110.65, 340.38 -222.2, 393.67 -281.14 M148.68 0.92 C197.05 -57.06, 246.16 -113.21, 392.74 -280.55 M159.68 0.95 C215.3 -62.3, 271.2 -126.72, 403.9 -281.94 M158.81 -0.05 C212.8 -61.85, 267.03 -124.47, 403.29 -280.82 M168.62 0.43 C255.25 -99.38, 341.67 -197.51, 414.97 -281.85 M169.6 1.07 C243.35 -85.66, 317.61 -171.07, 414.42 -281.1 M179.27 0.06 C242.15 -68.29, 303.37 -139.87, 426.11 -281.37 M180.85 0.08 C267.71 -97.46, 354.48 -197.24, 424.95 -280.67 M191.38 0 C247.97 -60.31, 301.45 -124.57, 436.82 -280.56 M190.51 0.44 C281.55 -104.51, 371.97 -210.1, 435.29 -280.78 M202.56 0.91 C289.48 -101.84, 380.25 -204.11, 447.18 -281.71 M201.8 -0.08 C273.96 -80.61, 345.68 -163.5, 446.12 -280.89 M213.43 1.16 C290.71 -90.98, 368.64 -181.09, 458.19 -282.35 M212.04 0.57 C306.79 -105.16, 398.88 -211.87, 456.98 -280.92 M223.04 1.47 C293.96 -81.71, 366.41 -164.47, 467.11 -280.45 M222.36 0.27 C289.68 -78, 358.39 -156.68, 467.33 -281.11 M234.12 -0.32 C328.77 -108.96, 421.04 -216.19, 477.63 -282.05 M233.78 0.29 C292.09 -67.07, 351.8 -135.3, 477.67 -280.65 M243.53 0.21 C341.58 -109.46, 436.65 -220.96, 487.87 -281.98 M244.7 0.47 C322.52 -92.11, 401.83 -182.82, 489.34 -281.18 M254.83 -0.87 C348.54 -107.19, 445.45 -216.37, 500.54 -281.35 M254.35 0.66 C314.95 -69.08, 374.92 -137.05, 499.47 -281.77 M266.37 0.92 C330.44 -74.33, 396.2 -151.44, 510.96 -280.43 M265.12 -0.37 C362.47 -109.12, 457.11 -218.64, 510.67 -281.19 M276.45 1.1 C364.43 -99.62, 451.17 -199.65, 519.64 -281.49 M276.26 0.08 C335.86 -67.64, 394.49 -135.6, 521.02 -281.44 M286.12 0.53 C373.58 -96.75, 460.36 -195.91, 532.55 -281.71 M286.22 0.3 C338.53 -57.65, 388.7 -115.24, 531.31 -281.46 M296.98 0.28 C379.09 -94.53, 459.65 -186.52, 541.87 -280.83 M297.36 0.37 C356.11 -66.51, 414.86 -132.68, 542.43 -281.9 M309.11 -1.15 C386.85 -91.61, 463.13 -179, 553.23 -281.48 M308.43 -0.08 C371.75 -75.2, 436.03 -149.69, 552.72 -281.3 M318.85 -0.81 C374.29 -60.54, 429.18 -124.31, 563.94 -282.13 M318.17 -0.54 C371.83 -58.43, 423.59 -118.24, 562.8 -282 M328.97 1.07 C395.8 -77.73, 465 -154.93, 573.14 -282.28 M328.72 0.58 C383.5 -63.75, 438.82 -127.76, 574.11 -281.48 M339.13 0.78 C425.24 -99.31, 511.26 -196.95, 584.52 -280.36 M339.44 -0.06 C411.59 -83.47, 485.38 -167.93, 585.15 -281.99 M350.46 1.34 C439.82 -105.33, 532.65 -210.35, 594.4 -281.32 M349.74 1.22 C422.81 -84.65, 497.39 -170.73, 594.94 -281.79 M361.14 -0.56 C429.64 -78.68, 498.32 -157.25, 606.72 -282.28 M360.29 0.03 C458.84 -111.57, 557.02 -223.22, 605.37 -281.17 M370.08 1.81 C469.56 -111.37, 566.82 -223.12, 616.23 -282.65 M371.45 0.76 C438.24 -76.62, 505.14 -153.41, 616.12 -282.24 M382.33 -0.02 C434.38 -60.92, 489.9 -121.43, 625.89 -281.95 M382.01 0.35 C471.37 -101.94, 562.12 -205.76, 626.94 -281.49 M391.63 -0.01 C484.84 -102.59, 576.16 -208.5, 637.4 -282.57 M392.08 0.12 C462.91 -81.62, 531.84 -161.5, 637.55 -281.83 M402.66 0.15 C452.84 -59.29, 503.1 -116.64, 649.08 -282.75 M402.94 -0.11 C461.1 -66.22, 517.72 -131.4, 648.65 -281.46 M414.27 0.46 C502.17 -100.53, 590.2 -202.04, 658.64 -281.77 M413.19 0.49 C470.74 -68.82, 529.64 -135.83, 659.38 -282.26 M424.69 -0.13 C503.32 -91.67, 583.58 -184.96, 670.73 -282.71 M424.75 0.33 C516.38 -105.93, 608.47 -214.01, 669.55 -282.29 M434.25 0.88 C495 -68.97, 557.94 -140.56, 680.25 -282.96 M435.34 0.37 C485.45 -58.9, 535.46 -115.84, 680.76 -281.78 M445.68 -0.52 C515.34 -81.63, 587.09 -164.48, 689.67 -281.86 M445.68 0.66 C534.43 -99.71, 622.42 -199.71, 691.33 -281.73 M457.11 -0.58 C552.58 -109.72, 646.68 -219.95, 702.06 -281.04 M455.66 0.47 C509.56 -58.65, 560.74 -117.71, 701.07 -282.53 M467.27 -0.2 C529.87 -74.43, 593.01 -145.84, 711.6 -282.21 M466.63 0.88 C535.29 -77.32, 603.56 -155.46, 712.28 -281.42 M478.19 -0.43 C563.08 -97.48, 647.73 -193.76, 723.44 -282.66 M477.59 0.06 C538.24 -69.92, 599.1 -139.65, 722.35 -282.02 M488.23 -0.32 C540.84 -61.12, 593.87 -124.46, 734.44 -282.85 M487.51 0.75 C541.96 -58.97, 593.28 -118.3, 733.33 -282.03 M499.68 0.37 C579.6 -91.09, 661.54 -184.53, 743.3 -281.83 M498.75 0.62 C565.1 -79.42, 632.22 -156.6, 744.45 -281.6 M509.31 0.84 C557.48 -55.66, 609.1 -112.19, 755.67 -282.44 M509.68 -0.2 C607.53 -113.23, 705.41 -225.66, 754.43 -281.99 M520.88 -1.08 C614.55 -110.43, 710.45 -222.59, 764.99 -281.85 M519.37 -0.26 C570.74 -59.97, 621.98 -117.77, 764.99 -281.69 M530.79 0.59 C598.83 -76.49, 664.94 -152.99, 774.74 -281.61 M531.08 -0.23 C586.31 -65.45, 643.37 -131.64, 775.77 -282.43 M540.62 0.08 C592.58 -59.25, 645 -119.91, 786.51 -283.11 M541.16 -0.34 C619.57 -93.57, 699.38 -185.12, 786.7 -281.67 M552.51 -0.86 C635.5 -97.6, 718.87 -193.23, 797.94 -282.97 M552.3 -0.24 C621.86 -79.51, 691.21 -159.46, 797.76 -282.24 M562.18 -0.61 C640.59 -89.81, 720.98 -183.04, 807.84 -283.13 M562.4 -0.05 C629.55 -75.28, 696.17 -152.53, 807.66 -282.39 M573.84 -0.41 C659.67 -97.7, 744.49 -194.55, 818.95 -281.37 M572.96 -0.19 C638.08 -73.04, 702.91 -147.25, 818.58 -281.78 M582.81 0.95 C651.48 -78.7, 721.79 -159.23, 828.5 -281.39 M583.38 0.71 C643.14 -68.94, 704.4 -139.11, 828.64 -282.49 M593.05 1.39 C658.24 -75.16, 721.94 -149.04, 840.71 -283.36 M593.45 0.53 C659.44 -75.16, 725.81 -150.83, 839.11 -282.84 M603.75 -0.27 C672.69 -78.19, 741.27 -155.63, 850.01 -281.8 M604.13 0.77 C659.17 -63.01, 714.88 -125.92, 850.6 -282.06 M614.76 -0.28 C693.25 -90.66, 771.59 -180.01, 860.85 -282.9 M615.15 0.03 C697.86 -95.74, 781.37 -190.74, 860.44 -282.58 M626.21 0.71 C714.09 -102.75, 801.25 -203.67, 870.97 -282.93 M625.41 0.99 C707.87 -94.72, 789.11 -188.1, 871.1 -282.61 M636.35 -0.19 C726.14 -100.89, 812.53 -202.57, 881.41 -283.18 M636.48 0.86 C709.38 -82.51, 780.9 -164.84, 882.68 -282.04 M646.76 1.29 C743.78 -111.4, 841.6 -223.37, 891.98 -282.9 M646.39 0.02 C711.69 -72.91, 776.62 -147.16, 892.8 -282.27 M657.78 -0.72 C725.74 -78.65, 792.43 -155.83, 903.97 -282.11 M657.96 0.97 C731.21 -85.42, 804.66 -169.53, 903.72 -282.47 M668.8 -0.68 C739.66 -83.4, 811.5 -168.06, 913.18 -281.82 M667.72 -0.05 C734.71 -76.7, 800.89 -152.88, 913.7 -283.02 M678.58 1.07 C728.85 -57.31, 780.48 -116.39, 924.78 -281.98 M679.13 0.5 C752.24 -82.72, 824.95 -167.13, 924.12 -282.94 M690.42 0.41 C740.28 -58.79, 788.95 -116.61, 934.23 -281.74 M689.04 0.2 C780.72 -103.83, 872.77 -208.85, 935.69 -282.19 M700.27 1.29 C777.2 -87.11, 852.72 -173.82, 946.95 -282.21 M699.74 0.59 C793.8 -108.47, 887.73 -216.94, 945.88 -282.73 M711.67 0.88 C790.18 -88.32, 867.12 -176.52, 956.8 -281.87 M710.23 -0.03 C796.09 -95.88, 881.17 -194.11, 956.03 -282.24 M721.44 1.36 C817.67 -112.11, 913.33 -223.42, 968.26 -281.76 M721 -0.3 C777.31 -62.39, 831.38 -123.72, 967.59 -282.57 M732.16 -0.05 C793.65 -70.21, 853.31 -141.13, 977.23 -283.36 M731.4 0.65 C814.55 -96.7, 897.62 -192.54, 978.28 -283.41 M742.71 0.73 C816.88 -82.92, 890.6 -168, 988.45 -284 M741.92 -0.27 C799.81 -66.23, 856.27 -132.48, 988.06 -283.42 M753.47 -0.27 C817.49 -73.1, 881.41 -147.32, 998.69 -282.05 M752.86 -0.23 C816.83 -71.19, 878.58 -143.05, 998.94 -282.49 M764.2 -0.71 C837.94 -87.96, 914.48 -176.79, 1009.26 -282.09 M764.15 -0.09 C811.39 -56.85, 861.47 -114.44, 1009.98 -282.82 M774.29 0.36 C836.48 -72.11, 899.28 -143.17, 1021.46 -283.05 M773.97 -0.53 C860.92 -100.9, 948.15 -201.39, 1020.8 -282.63 M785.58 -0.16 C865.28 -93.87, 949.52 -189.85, 1031.97 -283.37 M784.72 0.47 C853.36 -80.5, 922.74 -160.07, 1031.39 -283.39 M795.29 -0.03 C887.04 -102.4, 977.25 -206.43, 1040.51 -283.73 M795.52 0.49 C864.72 -79.42, 933.54 -157.35, 1042.02 -283.53 M806.09 0.76 C888.31 -94.29, 969.6 -189.68, 1052.53 -282.53 M805.75 0.16 C901.09 -109.29, 993.94 -217.3, 1051.8 -283.14 M816.02 0.38 C903.84 -102.35, 995 -208.46, 1062.52 -283.43 M816.64 0.4 C867.63 -59.18, 919.5 -118.93, 1063.44 -282.68 M826.27 1.64 C901.53 -85.75, 977.72 -170.08, 1073.74 -283.54 M826.49 0.74 C919.87 -104.53, 1012.29 -210.45, 1073.36 -282.72 M837.55 1.57 C904.42 -77.11, 970.25 -151.29, 1083.97 -283.45 M837.47 0.39 C914.55 -87.16, 991.61 -175.22, 1083.68 -282.67 M848.17 0.28 C912.03 -72.39, 976.17 -147.24, 1095.51 -282.63 M848.4 0.22 C920.44 -81.71, 993.56 -166.79, 1094.8 -283.01 M858.52 1.38 C938.44 -87.16, 1014.67 -177.59, 1105.76 -282.23 M858.8 0.03 C930.47 -81.75, 1002.03 -164.33, 1105.23 -282.69 M868.99 -0.4 C939.11 -80.1, 1008.81 -160.77, 1117.27 -282.86 M869.97 -0.11 C955.46 -99, 1041.22 -197.24, 1116.3 -282.68 M880.21 -0.19 C930.14 -55.64, 977.94 -113.33, 1125.89 -282.59 M879.93 0.33 C937.75 -66.19, 995.59 -134.35, 1127.17 -283.34 M891 -0.19 C959.54 -74.33, 1024.54 -153.19, 1138.05 -284.4 M890.59 0.03 C961.55 -80.93, 1032.11 -161.91, 1137.06 -283.08 M901.01 -0.3 C960.19 -69.29, 1018.57 -136.31, 1146.79 -284.47 M901.54 0.86 C997.2 -108.91, 1093.23 -219.8, 1147.59 -283.05 M911.13 -0.85 C1004.01 -104.84, 1094.46 -209.01, 1158.79 -284.54 M912.3 0.72 C971.24 -68.97, 1030.81 -135.88, 1158.92 -283.34 M923.71 -0.47 C971.72 -54.05, 1021.2 -111.17, 1170.4 -282.53 M922.16 -0.23 C1010.95 -98.93, 1097.52 -198.51, 1169.67 -282.87 M933.18 1.16 C1019.89 -99.37, 1107.21 -200, 1180.03 -282.54 M933.71 0.59 C1003.95 -82.18, 1075.88 -164.83, 1180.33 -284.04 M943.36 0.62 C1010.51 -77.65, 1078.62 -156.36, 1190.94 -283.06 M944.16 -0.19 C1013.57 -82.08, 1085.89 -164.78, 1190.74 -284.11 M955.6 0.13 C1014.68 -67.01, 1075.02 -136.97, 1201.81 -284.5 M954.9 0.45 C1025.76 -81.56, 1097.62 -162.88, 1201.14 -283.55 M964.26 -0.06 C1038.55 -86.97, 1115.26 -171.47, 1211.88 -284.66 M965.29 -0.12 C1049.63 -95.68, 1134.07 -192.5, 1212 -283.44 M976.41 0.51 C1047.42 -83.22, 1120.23 -164.47, 1221.31 -283.9 M976.16 -0.3 C1036.74 -70.79, 1097.99 -141.45, 1222.68 -284.13 M985.42 -0.27 C1074.61 -101.22, 1163.63 -203.08, 1233.83 -283.01 M985.97 -0.16 C1080.4 -109.29, 1177.12 -219.23, 1232.47 -283.83 M998.01 -0.07 C1091.73 -107.98, 1187.95 -218.44, 1242.54 -283.51 M996.79 -0.09 C1080.07 -96.41, 1163.34 -192.46, 1244.08 -283.38 M1007.81 0.28 C1095.12 -98.46, 1181.1 -198.41, 1254.47 -283.08 M1008.03 0.57 C1080.55 -82.1, 1153.05 -165.12, 1253.79 -283.62 M1017.51 -1.1 C1083.39 -76.96, 1150.15 -154.68, 1264.19 -283.19 M1018.75 0.03 C1091.62 -84.61, 1164.78 -169.4, 1264.66 -284.02 M1029.5 -0.11 C1082.51 -63.24, 1137.86 -126.61, 1275.93 -284.5 M1028.7 0.27 C1095.32 -75.79, 1161.06 -152.07, 1275.43 -283.79 M1038.84 0.82 C1113.58 -86.46, 1186.67 -170.51, 1286.93 -284.78 M1039.39 -0.05 C1092.81 -63.56, 1148.4 -126.92, 1286.43 -284.11 M1049.91 0.51 C1139.66 -102.14, 1230.3 -208.19, 1297.42 -284.03 M1049.63 0.12 C1123.07 -83.24, 1196.3 -168.43, 1297.06 -284.36 M1059.95 0.56 C1128.58 -79.81, 1196.26 -158.18, 1308.53 -284.81 M1060.45 0.14 C1151.4 -107.29, 1245.77 -214.4, 1307.99 -284.38 M1069.96 -0.14 C1122.01 -59.61, 1173.95 -117.71, 1317.72 -282.84 M1071.01 -0.02 C1151.64 -91.52, 1231.14 -183.01, 1318.61 -284.35 M1080.33 0.94 C1141.73 -70.78, 1205.2 -142.25, 1328.77 -284.23 M1081.05 0.96 C1175.07 -108.24, 1270.36 -217.85, 1328.13 -283.38 M1092.97 0.78 C1191.7 -113.06, 1290.19 -224.92, 1339.99 -284.04 M1092.53 0.58 C1153.07 -69.03, 1214.62 -139.49, 1339.01 -284.23 M1101.88 0.18 C1179.32 -85.33, 1252.9 -170.83, 1349.36 -283.5 M1102.19 -0.02 C1157.94 -65.8, 1214.55 -131.42, 1349.55 -283.48 M1112.81 0.99 C1173.55 -69.72, 1235.66 -139.13, 1359.68 -283.05 M1113.52 0.42 C1194.99 -93.52, 1278.42 -189.03, 1361.04 -284.67 M1124.27 1.05 C1207.06 -95.99, 1289.92 -192.14, 1371.58 -285.07 M1123.31 -0.16 C1186.33 -72.59, 1251.23 -146.66, 1371.51 -283.67 M1134.99 1.07 C1203.48 -77.65, 1272.05 -157.72, 1381.45 -284.49 M1134.78 0.22 C1188.97 -64.01, 1244.12 -127.5, 1381.66 -284.19 M1144.31 -0.47 C1223.61 -90.31, 1301.74 -182.56, 1391.39 -283.66 M1145.33 0.53 C1241.34 -109.6, 1337.45 -220.21, 1392.29 -284.38 M1154.86 -0.36 C1224.18 -78.9, 1291.35 -155.12, 1402.27 -285.3 M1156.09 0.46 C1229.27 -84.18, 1303.36 -168.72, 1402.91 -283.92 M1165.62 -0.69 C1226.35 -70.21, 1286.74 -138.6, 1414 -283.22 M1166.93 0.61 C1237.87 -81.48, 1308.92 -163.6, 1414.05 -283.85 M1177.04 0.6 C1237.29 -66.94, 1295.93 -134.44, 1423.47 -284.35 M1177.5 0.19 C1257.55 -91.49, 1336.32 -182.6, 1424.63 -284.02 M1186.52 -0.32 C1268.55 -94.46, 1348.21 -188.49, 1434.48 -284.85 M1187.07 -0.39 C1284.82 -113.72, 1383.98 -227.35, 1435.52 -284.15 M1198.4 1.07 C1254.68 -64.01, 1309.56 -127.86, 1443.34 -281.91 M1198.03 0.64 C1249.03 -56.19, 1298.79 -113.77, 1443.05 -281.87 M1209.74 0.4 C1268.8 -68.95, 1327.85 -137.64, 1447.97 -273.74 M1208.49 0.49 C1285.35 -83.86, 1359.1 -170.03, 1446.47 -273.4 M1220.24 1.07 C1292.85 -84.05, 1367.47 -169.57, 1452.72 -267.67 M1219.39 0.43 C1272.69 -60.52, 1326.31 -121.75, 1451.2 -267.34 M1230.19 -0.85 C1300.39 -79.51, 1370.2 -160.52, 1456.95 -259.29 M1230.69 -0.14 C1318.51 -101.51, 1408.02 -203.76, 1455.67 -259.77 M1240.86 0.97 C1293.69 -59.04, 1346.98 -121.34, 1460.69 -252.05 M1241.12 0.32 C1293.93 -58.81, 1345.09 -118.02, 1460.14 -251.81 M1252.27 -0.83 C1304.71 -61.63, 1357.92 -123.79, 1464.95 -244.23 M1251.95 0.34 C1330.23 -90.75, 1409.18 -181.18, 1463.94 -244.06 M1263.32 -1.03 C1334.17 -83.66, 1409.5 -167.77, 1467.25 -237.97 M1261.52 -0.45 C1311.59 -54.61, 1360.09 -110.61, 1467.34 -237.23 M1272.04 -0.92 C1324.22 -57.82, 1371.83 -113.01, 1473.2 -228.48 M1273.38 0.45 C1335.06 -73.7, 1397.63 -147.8, 1471.47 -228.97 M1281.18 0.16 C1332.48 -58.23, 1383.61 -113.6, 1477.66 -222.24 M1282.68 0.7 C1356.31 -87.59, 1431.49 -172.9, 1477.38 -223.11 M1292.68 1.59 C1354.53 -70.03, 1415.19 -139.37, 1479.42 -214.24 M1292.91 0.4 C1347.9 -63.13, 1403.32 -126.43, 1480.17 -214.84 M1303.81 -0.51 C1374.86 -78.72, 1441.99 -159.16, 1486.19 -207.41 M1303.22 1 C1345.22 -48.41, 1386.34 -95.3, 1484.59 -208.31 M1313.1 1.74 C1372.6 -67.56, 1430.81 -132.06, 1487.78 -201.11 M1315.24 0.92 C1367.68 -60.5, 1421.42 -122.84, 1488.93 -199.93 M1326.55 0.56 C1362.03 -40.07, 1395.37 -81.27, 1494.1 -191.98 M1324.47 1.02 C1365.72 -47.7, 1406.27 -94.94, 1492.85 -192.68 M1335.83 0.13 C1393.79 -65.71, 1449.18 -132.3, 1498.15 -183.95 M1335.76 0.16 C1387.53 -62.6, 1441.7 -124.36, 1497.31 -185.08 M1347.38 0.62 C1383.3 -42.72, 1418.81 -83.99, 1502.17 -176.75 M1345.72 0.25 C1390.65 -52.1, 1436.92 -104.29, 1501.88 -177.95 M1357.04 0.71 C1407.91 -55.87, 1459.53 -114.65, 1506.14 -169.66 M1357 -0.13 C1401.26 -52.03, 1445.45 -103.64, 1506.7 -171.41 M1366.8 0.59 C1398.85 -34.01, 1432.39 -72.91, 1508.56 -163.13 M1368.23 1.23 C1424.18 -64.01, 1480.44 -127.95, 1509.6 -164.05 M1378.77 1.6 C1411.12 -38.33, 1442.25 -78.2, 1514.62 -156.13 M1378.71 -0.01 C1420.76 -50.28, 1465.17 -100.88, 1513.42 -156.44 M1388.31 -1.53 C1436.74 -50.8, 1480.12 -103.47, 1520.09 -147.2 M1388.25 1.28 C1432.87 -48.62, 1475.26 -97.76, 1517.93 -148.3 M1398.9 1.37 C1431.88 -36.27, 1465.68 -74.52, 1521.56 -139.65 M1399.04 0.07 C1430.75 -34.4, 1458.73 -67.91, 1523.85 -140.79 M1411.81 0.88 C1441.54 -35.84, 1469.26 -67.52, 1528.09 -135.42 M1409.58 0.26 C1436.36 -31.01, 1463.08 -63.53, 1527.55 -133.48 M1422.24 -1.3 C1451.35 -33.5, 1478.16 -67.74, 1529.08 -127.91 M1420.18 -0.73 C1453.72 -38.2, 1484.46 -73.85, 1531.11 -126.42 M1431.79 -0.66 C1471.89 -44.19, 1508.01 -88.26, 1536.24 -119.42 M1430.84 0.23 C1454.84 -25.57, 1476.2 -52.37, 1535.33 -118.93 M1441.07 1.59 C1471.13 -30.42, 1499.15 -63.93, 1540.74 -110.49 M1442.93 0.27 C1467.87 -29.03, 1491.6 -58.16, 1540.18 -112.1 M1454.09 2.05 C1472.11 -24.06, 1491.51 -46.55, 1541.69 -104.35 M1452.96 0.73 C1483.48 -35.51, 1515.58 -70.8, 1542.52 -104.55 M1462.85 -1.38 C1489.43 -29.28, 1515.15 -58.38, 1547.31 -96.18 M1462.37 -0.55 C1488.1 -28.63, 1513.61 -56.54, 1548.52 -96.91 M1475.8 1.99 C1498.85 -27.67, 1521.78 -57.93, 1552.8 -90.62 M1473.23 0.95 C1493.74 -22.17, 1513.06 -44.37, 1552.77 -90.6 M1486.33 -0.86 C1500.79 -15.66, 1515.38 -36.99, 1556.81 -82.77 M1484.01 0.78 C1506.18 -25.33, 1527.56 -50.24, 1555.99 -82.04 M1493.28 0.86 C1510.99 -18.85, 1528.45 -37.21, 1559.25 -75.65 M1495.33 -0.33 C1516.28 -24.32, 1537.65 -48.29, 1560.13 -75.46 M1505.46 1.23 C1522.13 -14.9, 1536.32 -32.88, 1562.5 -65.52 M1505.7 -0.13 C1526.61 -24.47, 1547.94 -48.43, 1564.78 -67.33 M1517.46 1.89 C1528.78 -15.4, 1542.44 -29.54, 1567.9 -58.34 M1516.63 0.09 C1533.23 -17.67, 1549.18 -38.14, 1568.97 -60.16 M1524.81 0.49 C1535.1 -10.63, 1544.74 -23.05, 1572.88 -51 M1527 0.73 C1539.82 -15.66, 1554.78 -31.93, 1573.48 -52.97 M1536.51 -1.23 C1548.97 -12.67, 1561.43 -29.23, 1576.88 -44.85 M1536.87 0.73 C1551.89 -16.3, 1564.95 -32.1, 1578.06 -46.08 M1546.17 -1 C1561.2 -13.58, 1573.71 -29.38, 1581.75 -38.72 M1547.85 0.7 C1558.79 -11.89, 1569.74 -24.95, 1581.06 -37.29 M1559.87 0.24 C1567.96 -9.19, 1579.87 -21.81, 1585.62 -30.35 M1558.2 0.02 C1567.55 -8.25, 1573.82 -18.04, 1584.58 -30.73 M1568.61 1.86 C1574.69 -3.75, 1580.51 -10.23, 1588.09 -21.72 M1568.57 1.02 C1573.27 -4.92, 1577.42 -9.94, 1588.86 -23.25 M1580.88 -0.99 C1583.83 -4.25, 1588.66 -9.39, 1594.72 -15.49 M1579.77 1.27 C1583.22 -2.05, 1585.32 -6.61, 1594.03 -16.25 M1590.76 1.45 C1594.13 -4.17, 1596.57 -6.33, 1598.16 -8.44 M1590.41 0.04 C1592.15 -2.25, 1593.97 -4.12, 1598.39 -8.36" stroke="#7950f2" stroke-width="1" fill="none"></path><path d="M-0.23 0.52 C393.02 -0.22, 786.39 0.87, 1600.42 -0.53 M0.22 -0.25 C539.98 1.77, 1080.16 1.75, 1601.21 0.15 M1599.96 -0.54 C1566.79 -57.59, 1533.28 -118.42, 1439.07 -284.55 M1601.04 -0.25 C1539.06 -109.95, 1477.94 -217.13, 1440 -284.82 M1440.18 -284.74 C1002.62 -284.02, 565.59 -281.62, 159.35 -279.71 M1439.54 -284.23 C1158.49 -283.66, 877.81 -283.1, 159.86 -280.7 M160.78 -279.97 C117.53 -203.65, 71.46 -124.18, -0.94 0.97 M159.8 -281.02 C99.88 -176.87, 41.68 -73.35, 0.64 0.18 M0 0 C0 0, 0 0, 0 0 M0 0 C0 0, 0 0, 0 0" stroke="#5f3dc4" stroke-width="2" fill="none"></path></g></g><g stroke-linecap="round"><g transform="translate(931.2556523566782 1910.7395721616617) rotate(0 640.484666615891 -139.33594550205498)" fill-rule="evenodd"><path d="M160.41 -276.61 C160.41 -276.61, 160.41 -276.61, 160.41 -276.61 M160.41 -276.61 C160.41 -276.61, 160.41 -276.61, 160.41 -276.61 M140.05 -241.41 C149.33 -251.1, 162.24 -267.3, 169.09 -275.04 M139.22 -240.9 C145.74 -249.64, 153.65 -257.39, 170.89 -276.17 M118.67 -202.33 C140.84 -232.54, 165.04 -260.16, 181.61 -274.76 M118.72 -204.17 C135.57 -223.63, 150.83 -242.86, 181.89 -276.93 M97.22 -165.2 C121.79 -198.64, 153.25 -230.16, 191.15 -275.59 M96.65 -166.12 C120.16 -194.41, 146.16 -222.72, 192.81 -277.51 M76.6 -132.27 C123.26 -183.34, 170.17 -239.29, 204.62 -276.96 M76.54 -130.95 C118.07 -178.41, 160.3 -227.6, 203.34 -276.54 M55.28 -92.72 C110.12 -158.93, 168.13 -226.65, 212.46 -275.16 M53.38 -93.24 C107.2 -155.09, 161.08 -218.16, 212.81 -277.37 M34.29 -58.34 C106.18 -141.89, 176.62 -224.56, 223.29 -277.11 M33.53 -57.3 C103.22 -135.36, 172.67 -215.88, 223.77 -276.91 M11.09 -20.31 C57.05 -71.04, 102.63 -123.16, 235.73 -276.05 M11.73 -19.95 C88.5 -106.65, 164.34 -193.53, 235.03 -276.83 M1.91 1.41 C73.02 -80.38, 143.99 -163.43, 245.12 -276.81 M2.26 2.69 C54.63 -58.82, 106.07 -118.96, 245.97 -276.75 M12.56 2.56 C63.06 -53.66, 112.31 -113.65, 255.78 -277.4 M13.21 1.82 C93.21 -92.18, 173.62 -183.85, 256.43 -277.48 M23.11 3.15 C76.88 -58.21, 130.45 -117.41, 267.13 -277.39 M23.69 2.02 C118.25 -108.34, 214.2 -218.2, 266.58 -277.49 M33.74 1.75 C117.76 -90.7, 201.33 -186.49, 276.39 -277.24 M34.15 2.73 C93.9 -66.86, 154.19 -135.73, 277.22 -276.67 M44.84 3.37 C135.94 -104.43, 228.57 -210.1, 288.05 -278.05 M45.64 1.92 C104.06 -65.66, 163.89 -133.95, 287.42 -276.53 M56.66 2.51 C135.84 -88.8, 212.09 -177.67, 298.78 -276.33 M56.28 2.13 C116.06 -64.27, 174.94 -132.45, 298.39 -276.61 M66.55 3.2 C162.08 -104.74, 255.01 -213.87, 309.42 -276.02 M66.33 1.7 C150.07 -95.23, 235.31 -192.1, 308.73 -277.17 M76.06 2.05 C135.08 -64.77, 193.84 -129.96, 319.77 -278.32 M77.1 1.95 C153.46 -86.19, 230.73 -174.94, 319.47 -276.81 M88.14 0.87 C138.25 -56.91, 190.43 -116.85, 330.74 -276.42 M87.43 2.17 C163.51 -86.51, 240.51 -174.84, 330.55 -277.59 M99.47 2.05 C179.91 -93.19, 264.64 -189.31, 341.57 -277.43 M98.78 1.87 C172.43 -85.09, 247.07 -170.7, 340.98 -277.78 M109.98 1.51 C202.97 -105.3, 297.73 -213.28, 352 -277.4 M109.19 1.9 C161.67 -55, 211.53 -113.77, 351.45 -276.94 M120.09 1.27 C178.34 -65.95, 238.81 -133.54, 361.93 -278.24 M119.6 1.8 C188.02 -78.89, 257.02 -157.76, 362 -277.33 M130.42 2.41 C224.99 -106.92, 320.67 -217.88, 373.63 -277.6 M130.34 2.14 C207.13 -85.32, 283.31 -172.22, 373.45 -277.87 M141.44 2.91 C218.85 -84.41, 293.77 -172.74, 383.98 -278.38 M141.26 1.88 C229.45 -97.53, 316.99 -199.08, 383.83 -276.75 M150.75 2.86 C223.21 -81.19, 294.64 -162.4, 394.07 -278.57 M151.89 1.92 C238.13 -99.36, 326.25 -199.9, 394.67 -277.82 M162.58 2.34 C233.54 -78.68, 303.16 -160.34, 403.93 -278.38 M161.58 1.26 C230.51 -76.73, 298.68 -156.06, 405.06 -277.09 M172.07 2.45 C245.98 -81.92, 321.65 -168.45, 414.69 -277.41 M172.71 2.49 C248.08 -85.65, 324.99 -174.79, 415.44 -277.75 M182.36 2.61 C250.17 -71.54, 314.65 -146.32, 425.83 -276.83 M182.38 2.52 C242.42 -65.01, 300.05 -132.6, 426.54 -277.94 M192.96 2.96 C247.4 -58, 297.67 -114.96, 437.31 -276.6 M193.41 3.05 C288.61 -105.92, 383.15 -214.95, 437.09 -277.12 M204.54 1.58 C281.33 -86.38, 358.49 -175.15, 446.82 -277.64 M203.55 2.53 C266.32 -67.73, 326.62 -138.63, 447.65 -277.41 M215.46 3.04 C297.66 -95.71, 382.01 -191.17, 456.84 -276.61 M214.86 2.86 C269.22 -58.39, 322.37 -119.51, 458.29 -277.63 M226.44 1.37 C286.58 -68.33, 347.27 -139.8, 469.41 -277.85 M225.23 1.88 C318.33 -102.92, 410.97 -209.06, 468.76 -277.11 M235.3 2.61 C286.98 -60.15, 340.18 -120.53, 478.48 -278.38 M235.91 1.85 C305.28 -77.3, 373.78 -157.85, 479.89 -277.07 M246.5 2.89 C312.03 -71.49, 375.57 -145.95, 489.21 -277.39 M246.76 1.87 C323.75 -89.76, 402.78 -179.44, 490.01 -277.14 M256.08 1.11 C330.32 -78.93, 401.58 -160.98, 500.51 -278.4 M257.62 2.67 C330.21 -80.7, 404.63 -165.98, 500.08 -277.91 M268.55 1.65 C341.87 -83.39, 413.29 -166.21, 512.1 -276.66 M267.24 2.79 C320.73 -57.74, 373.49 -118.18, 511.33 -277.42 M279.38 2.44 C327.81 -54.92, 376.95 -113.7, 521.69 -278.52 M278.37 2.05 C333.69 -62.47, 388.88 -125.93, 521.75 -277.47 M289.48 2.57 C357.37 -71.95, 423.24 -148.01, 532.14 -278.98 M289.25 2.71 C346.35 -62.15, 403.86 -128.71, 532.39 -277.6 M299.9 2.67 C382.68 -94.01, 468.16 -188.97, 543.69 -278.61 M299.99 1.86 C362.13 -68.89, 424.85 -139.83, 542.61 -277.75 M309.12 2.7 C368.84 -70.4, 431.86 -139.72, 553.7 -278.31 M310.2 2.39 C404.48 -108.36, 499.41 -216.62, 553.89 -278.35 M320.13 2.31 C387.23 -71.03, 450.05 -143.84, 563.72 -279 M320.4 1.73 C373.39 -55.98, 424.26 -114.38, 563.85 -278.08 M332.68 1.11 C398.41 -74.09, 465.88 -153.65, 574.22 -278.87 M332.19 1.58 C410.18 -87.9, 488.61 -178.28, 575.03 -277.65 M343.05 1.44 C409.35 -75.59, 478.27 -153.78, 586.82 -278 M342.21 1.55 C430.75 -97.64, 518.1 -197.92, 585.18 -277.54 M353.53 1.31 C436.31 -95.05, 520.77 -193.54, 596.52 -278.01 M353.4 1.51 C432.6 -89.79, 511.67 -182.36, 596.05 -278.15 M362.27 2.1 C430.42 -76.31, 498.29 -153.24, 606.22 -276.87 M362.86 1.42 C414.78 -56.57, 466.61 -116.49, 607.34 -277.46 M375.33 1.45 C428.01 -59.33, 482.13 -120.48, 616.51 -278.42 M374.27 2.4 C453.35 -89.88, 533.02 -181.68, 616.93 -278.6 M384.15 0.97 C456.93 -80.67, 530.05 -165.96, 627.88 -277.31 M384.52 1.67 C460.23 -83.82, 534.26 -170.11, 628.35 -277.68 M394.83 1.65 C451.82 -59.93, 505.25 -122.45, 637.92 -278.36 M394.96 2.23 C460.11 -74.9, 527.35 -151.58, 638.67 -278.74 M405.65 1.66 C487.51 -94.03, 571.61 -188.27, 648.41 -279.03 M405.39 1.64 C458.64 -60.72, 512.96 -122.03, 649.7 -277.84 M416.62 1.6 C474.92 -66.14, 532.76 -133.89, 660.05 -278.99 M416.66 1.69 C505.69 -101.88, 597.24 -206.77, 659.56 -278.08 M426.69 2.37 C519.37 -104.26, 610.48 -210.69, 669.77 -277.29 M427.16 2.12 C519.82 -105.76, 610.61 -210.82, 670.2 -278.57 M438.38 0.51 C517.64 -87.25, 595.05 -177.14, 680.19 -279.49 M437.87 1.69 C499.5 -72.67, 563.69 -145.48, 681.38 -278.36 M447.63 0.86 C532.04 -94.99, 614.73 -191.74, 691.96 -277.63 M448.82 1.69 C504.48 -61.72, 560.34 -124.96, 692.1 -277.78 M458.24 2.06 C526.1 -77.87, 592.96 -153.41, 703.46 -279.49 M459.3 2.14 C509.99 -55.22, 560.71 -114.31, 701.95 -278.63 M469.29 1.8 C545.89 -88.9, 625.45 -179.44, 712.94 -278.69 M470.37 1.6 C533.67 -70.66, 597.04 -143.92, 713.73 -278.12 M479.72 2.07 C548.21 -77.15, 617.36 -154.83, 723.15 -279.08 M480.21 1.96 C559.59 -89.78, 639.17 -181.7, 723.8 -278.94 M489.84 2.78 C580.92 -102, 669.55 -204.91, 733.62 -279.56 M490.91 2.86 C542.22 -55.44, 593.82 -114.61, 734.45 -278.29 M501.2 1.59 C568.02 -73.44, 632.7 -149.08, 745.31 -278.81 M501.45 2.26 C587.13 -99.96, 675.91 -200.71, 745.54 -279.11 M512.33 1.12 C588.03 -83.14, 663.49 -169.64, 755.36 -277.35 M511.29 2 C569.29 -66.52, 628.03 -134.86, 755.82 -277.98 M521.07 1.4 C604.04 -94.27, 684.35 -187.98, 766.63 -279.71 M521.9 2.16 C594.38 -81.14, 668.98 -166.69, 766.79 -278.73 M533.41 3.31 C610.47 -86.23, 687.93 -175.27, 777.53 -279.43 M532.59 1.71 C621.2 -100.93, 708.76 -201.58, 776.71 -279.13 M543.56 1.62 C630.46 -96.35, 715.93 -193.8, 786.68 -278.34 M543.14 2 C632.07 -102.17, 722.85 -206.18, 788.13 -278.39 M553.28 2.37 C633.3 -91.51, 714.57 -182.91, 797.49 -278.92 M553.91 1.71 C604.18 -57.11, 653.91 -114.8, 798.23 -278.53 M564.2 1.16 C647.64 -90.85, 726.9 -183.84, 808 -279.08 M564.77 1.62 C621.66 -62.17, 676.45 -126.35, 808.74 -278.43 M575.07 3.09 C639.12 -71.08, 703.49 -144.74, 820.43 -279.21 M575.29 1.97 C640.58 -70.87, 704.35 -144.61, 820.02 -278.87 M586.35 0.93 C651.04 -72.35, 714.93 -148.24, 831.08 -279.42 M586.1 2.32 C677.63 -102.91, 768.58 -208.54, 829.97 -279 M597.45 2.48 C687.5 -103.58, 780.21 -206.61, 839.75 -279.24 M596.59 1.42 C654.78 -64.81, 713.18 -133.82, 840.28 -278.94 M606.44 1.37 C682.49 -83.93, 758.81 -168.82, 851.99 -279.76 M607.49 1.94 C690.52 -92.76, 774.3 -187.97, 851.74 -278.74 M617.1 1.97 C690.13 -82.33, 764.32 -167.18, 861.55 -278.42 M617.4 1.72 C690.64 -82.96, 764.71 -168.24, 861.87 -278.51 M628.76 2.46 C714.32 -100.01, 802.52 -199.41, 872.18 -278.52 M629.04 2.23 C701.24 -82.92, 775.83 -167.81, 872.5 -278.57 M638.52 2.54 C695.78 -64.73, 752.23 -129.97, 882.6 -279.07 M639.57 2.26 C695.1 -63.65, 751.7 -128.69, 883.75 -278.37 M650.68 1.27 C721.87 -80.79, 793.7 -164.22, 893.54 -279.45 M649.39 1.49 C717.09 -73.3, 783.36 -149.42, 894.18 -279.13 M659.31 2.27 C738.97 -90.73, 819.42 -180.33, 905.01 -279.05 M661.01 1.48 C723.29 -73.83, 788.01 -147.45, 904.64 -279.06 M670.02 1.78 C757.41 -99.63, 842.94 -199.89, 915.97 -279.43 M670.65 1.93 C742.16 -80.15, 814.25 -163.47, 914.76 -279.64 M682.45 1.21 C753.66 -79.8, 824.18 -162.76, 926.47 -279.14 M681.87 1.7 C746.95 -73.57, 810.73 -148.1, 925.5 -279.67 M692.45 2.57 C774.16 -96.04, 857.44 -191.32, 937.37 -278.26 M692.24 1.1 C756.54 -70.18, 819.75 -143.02, 936.92 -279.07 M704 1.41 C756.67 -60.99, 810.9 -120.84, 947.56 -278.14 M703.29 1.79 C784.65 -92.39, 866.66 -186.72, 947.04 -279.07 M714.25 1.81 C764.78 -58.04, 816.19 -115.09, 958.57 -278.63 M713.33 1.66 C785.91 -78.35, 855.9 -159.73, 958.19 -278.63 M725.4 2.02 C807.26 -96.07, 891.31 -191.21, 969.35 -280.21 M723.73 2.09 C778.45 -60.14, 833.93 -122.84, 968.53 -279.56 M734.64 2.08 C802.36 -77.79, 869.49 -156.12, 978.4 -278.8 M735.35 1.61 C816.72 -93.1, 899.81 -188.24, 978.35 -279.27 M746.09 1.71 C814.32 -75.62, 881.02 -152.98, 988.42 -280.14 M745.09 1.94 C818.55 -82.46, 891.94 -168.27, 989.01 -279.54 M755.75 0.59 C816.52 -68.9, 875.95 -136.92, 1001.05 -279.92 M755.79 1.64 C808.94 -58.79, 861.26 -119.6, 1000.6 -279.29 M765.97 1.15 C857.42 -104.19, 947.49 -210.85, 1011.67 -280.57 M766.6 0.9 C863.69 -110.91, 959.94 -221.63, 1010.94 -279.64 M777.71 1.48 C863.66 -97.36, 950.88 -195.21, 1021.37 -278.73 M776.82 1.41 C862.33 -96.13, 947.86 -194.04, 1021.79 -279.19 M787.85 0.57 C881.49 -104.8, 972.87 -211.48, 1031.72 -279.66 M788.49 1.23 C873.31 -97.18, 959.69 -195.87, 1031.69 -279.03 M798.65 1.05 C851.75 -57.96, 903.14 -118.51, 1042.01 -279.76 M799.17 0.84 C850.26 -58.89, 903.46 -119.57, 1042.22 -279.26 M810.11 2.16 C902.05 -104.59, 993.48 -209.87, 1053.89 -278.51 M809.51 1.73 C873.14 -73.15, 938.39 -148.36, 1053.27 -279.1 M818.98 0.8 C917.71 -110.29, 1013.05 -222.32, 1063.65 -280.65 M819 2.07 C898.31 -90.22, 977.53 -181.38, 1064.41 -279.54 M830.91 1.08 C883.32 -58.98, 938.94 -122.76, 1074.2 -278.67 M830 2.17 C896.95 -72.6, 963.11 -149.08, 1075.03 -279.78 M841.51 1.97 C898.81 -67.62, 960.82 -137.18, 1084.96 -279.51 M840.32 1.49 C895.14 -60.58, 949.5 -124.66, 1085.74 -279.85 M850.87 1.99 C934.65 -92.85, 1016.04 -186.53, 1096.45 -279.69 M850.81 1.55 C932.69 -90.59, 1011.22 -181.9, 1096.07 -279.54 M862.65 2.68 C926.75 -70.95, 988.76 -141.64, 1107.52 -279.79 M861.28 1.7 C935.59 -83.09, 1009 -167.26, 1107.05 -279.78 M871.51 1.58 C944.24 -81.02, 1016.02 -162.38, 1117.54 -279.15 M871.8 1.34 C929.64 -67.17, 988.28 -134.12, 1117.73 -280.33 M882.38 2.32 C953.05 -79.33, 1021.5 -158.92, 1125.22 -276.75 M882.91 2.29 C974.35 -102.38, 1064.06 -205.94, 1124.44 -276.15 M893.03 2.7 C953.06 -65.2, 1008 -128.76, 1127.44 -268.64 M893.26 1.22 C953.11 -67.23, 1012.94 -135.54, 1128.82 -268.84 M903.57 2.26 C986.41 -94.64, 1071.4 -191.27, 1132.1 -260.55 M904.82 1.89 C976.73 -80.62, 1047.4 -163.25, 1133.63 -261.26 M913.61 2.79 C977.04 -69.04, 1040.27 -141.98, 1136.1 -255.01 M915.34 1.18 C968.33 -62.52, 1024.43 -125.92, 1137.42 -254.86 M924.67 0.78 C987.5 -68.58, 1046.32 -134.32, 1142.45 -245.98 M924.95 1.77 C970.48 -48.5, 1015.01 -99.14, 1142.07 -246.32 M937.21 1.06 C996.15 -67.04, 1054.99 -135.34, 1146.57 -239.3 M936.55 1.44 C1007.14 -81.25, 1077.87 -162.66, 1144.84 -239.33 M947.27 1.06 C1021.27 -83.47, 1094.81 -167.25, 1150.75 -232.53 M946.31 0.9 C1027.64 -91.94, 1108.04 -183.79, 1149.51 -232.83 M957.35 1.92 C1013.54 -61.28, 1066.34 -124.6, 1153.14 -225.05 M957.74 1.05 C1013.37 -63.44, 1069.94 -127.38, 1154.28 -224.86 M967.79 0.35 C1032.72 -72.14, 1100.63 -148.05, 1157.02 -216.78 M967.71 1.31 C1016.72 -53.66, 1064.22 -108.94, 1158.52 -217.46 M979.17 0.81 C1023.83 -51.72, 1071.46 -107.62, 1162.06 -210.68 M978.15 0.74 C1027.36 -56.83, 1076.14 -112.67, 1161.78 -209.42 M988.86 1.04 C1041.57 -56.6, 1093.03 -115.33, 1167.97 -201.73 M989 1.02 C1059.07 -76.27, 1128.36 -156.78, 1166.92 -202.42 M999.78 1.35 C1065.41 -71.71, 1128.07 -145.66, 1171.45 -194.99 M999.76 1.65 C1055.51 -62.63, 1111.4 -126.64, 1171.62 -195.21 M1010.92 2.05 C1050.23 -43.32, 1088.04 -88.89, 1176.15 -188.21 M1011.32 1.24 C1052.36 -46.49, 1093.37 -94.62, 1175.43 -188.34 M1019.72 0.51 C1073.96 -59.26, 1125.17 -120.97, 1180.14 -180.62 M1021.26 2.1 C1072.64 -58.6, 1123.57 -118.87, 1179 -181.22 M1031.75 1.49 C1091.13 -66.33, 1149.75 -134.04, 1183.1 -174.34 M1032.29 2.02 C1081.79 -55.18, 1131.08 -111.82, 1184.08 -173.84 M1043.75 1.01 C1074.81 -38.75, 1110.04 -77.38, 1186.8 -167.63 M1042.52 0.45 C1096.14 -60.59, 1149.99 -122.01, 1187.75 -165.72 M1052.91 0.02 C1096.35 -48.1, 1135.31 -92.72, 1191.98 -158.83 M1052.34 1.98 C1100.57 -52.41, 1146.32 -105.48, 1191.5 -159 M1063.67 1.75 C1104.57 -48.39, 1147.84 -95.17, 1194.93 -149.88 M1063.04 0.52 C1116.23 -59.76, 1169.76 -120.42, 1195.57 -152.12 M1073.18 1.43 C1108.84 -37.98, 1146.03 -82.26, 1202.17 -143.34 M1073.39 1.75 C1104.37 -33.75, 1134.62 -68.12, 1199.67 -144.26 M1085.65 0.74 C1131.73 -49.36, 1178.07 -104.44, 1204.65 -135.32 M1085.68 1.54 C1133.06 -52.1, 1180.08 -108.23, 1206.06 -136.03 M1096.08 1.72 C1123.78 -32.39, 1155.01 -64.86, 1209.09 -130.6 M1095.74 0.24 C1123.57 -30.76, 1149.71 -63.46, 1208.78 -129.51 M1105.76 2.82 C1126.87 -21.82, 1147.61 -48.64, 1214.11 -123.4 M1105.44 0.91 C1145.39 -44.37, 1184.57 -90.63, 1214.15 -122.55 M1117.8 -0.56 C1139.39 -24.48, 1162.95 -54.95, 1218.98 -113.76 M1116.86 1.04 C1155.97 -41.8, 1193.34 -84.8, 1216.29 -114.1 M1128.58 0.42 C1156.07 -32.96, 1183.68 -62.81, 1220.43 -108.5 M1126.58 0.23 C1165.42 -40.41, 1202.24 -82.12, 1222.73 -107.95 M1138.65 1.32 C1160.49 -24.47, 1180.55 -50.7, 1225.5 -101.74 M1137.24 0.77 C1164.53 -31.11, 1191.8 -61.77, 1226 -99.99 M1146.79 1.88 C1179.16 -33.78, 1207.31 -67.72, 1231.01 -90.89 M1148.44 2.3 C1176 -29.98, 1203.87 -61.83, 1229.81 -92.98 M1157.65 3.07 C1177.09 -19.79, 1199.12 -46.29, 1232.42 -85.18 M1159.01 2.14 C1185.74 -29.52, 1214.07 -61.17, 1234.7 -85.76 M1167.8 0.55 C1185.03 -18.46, 1203.45 -38.25, 1240.64 -78.61 M1169.94 2.02 C1193.28 -26.98, 1217.67 -52.48, 1239.6 -79.04 M1180.62 1.93 C1195.52 -15.2, 1210.43 -33.37, 1242.9 -70.48 M1179.94 2.53 C1196.52 -18.64, 1213.97 -37.58, 1243.44 -70.61 M1189.78 3.27 C1212.21 -24.63, 1233.79 -49.74, 1246.21 -61.41 M1189.67 0.95 C1211.54 -21.56, 1232.07 -44.69, 1247.35 -64.14 M1202.76 1.61 C1212.44 -12.03, 1223.18 -24.32, 1250.21 -57.8 M1202.06 0.92 C1213.24 -12.36, 1224.47 -24.65, 1250.28 -56.38 M1212.33 3.4 C1226.43 -15.74, 1241.85 -33.26, 1256 -48.85 M1212.48 2.25 C1223.25 -10.46, 1232.84 -22.14, 1256.55 -48.94 M1224.05 1.09 C1235.71 -12.33, 1247.43 -25.59, 1259 -43.04 M1223.05 0.65 C1233.27 -9.63, 1242.73 -21.99, 1259.51 -41.52 M1231.78 1.54 C1242.89 -8.6, 1250.64 -17.08, 1264.41 -32.18 M1232.86 1.47 C1244.58 -11.21, 1256.4 -24.61, 1263.68 -34.68 M1245.19 2.58 C1253.52 -6.74, 1259.98 -17.13, 1268.06 -27.86 M1244.22 1.46 C1249.41 -5.98, 1255.53 -11.13, 1268.42 -27.1 M1253.24 1.52 C1259.75 -4.14, 1263.08 -9.42, 1273.23 -18.45 M1254.93 0.53 C1259.31 -3.95, 1263.42 -9.16, 1273.47 -19.28 M1263.8 -0.26 C1267.9 -1.35, 1271.17 -7.56, 1275.67 -13.51 M1264.55 1.45 C1268.04 -0.97, 1269.82 -5.58, 1276.61 -12.79 M1275.23 1.72 C1276.73 -0.59, 1278.8 -0.85, 1281.51 -4.65 M1275.98 1.43 C1277.94 -1.6, 1279.52 -3.95, 1281.24 -4.98" stroke="#48bfdf" stroke-width="1" fill="none"></path><path d="M0.52 -0.38 C495.46 0.61, 992.51 0.08, 1280.54 -0.88 M-0.25 -0.1 C274 -3.04, 548.31 -2.99, 1281.22 -1.55 M1280.52 -1.8 C1233.97 -83.24, 1185.95 -164.2, 1120.48 -278.49 M1280.81 -1.82 C1235.58 -81.81, 1190.35 -161.62, 1120.21 -279.33 M1120.3 -279.54 C805.42 -275.87, 491.91 -275.34, 161.32 -277.41 M1120.81 -279.68 C770.96 -279.06, 421.13 -278.14, 160.33 -276.86 M161.06 -275.62 C102.62 -178.96, 47.76 -81.7, 0.97 1 M160.01 -277.46 C108.57 -188.91, 57.28 -101.58, 0.18 0.28 M0 0 C0 0, 0 0, 0 0 M0 0 C0 0, 0 0, 0 0" stroke="#0b7285" stroke-width="2" fill="none"></path></g></g><g stroke-linecap="round"><g transform="translate(1091.401951138494 1627.6743153633947) rotate(0 480.4255991186151 -141.53921439007945)" fill-rule="evenodd"><path d="M161.95 -283.23 C161.95 -283.23, 161.95 -283.23, 161.95 -283.23 M161.95 -283.23 C161.95 -283.23, 161.95 -283.23, 161.95 -283.23 M140.75 -249.15 C151.93 -256.73, 156.58 -268.62, 174.18 -284.68 M141.26 -248.76 C150.51 -259.1, 160.74 -270.11, 173.05 -282.4 M122.68 -213.84 C141.39 -238.2, 162.7 -260.22, 185.13 -284.01 M120.84 -211.72 C138.5 -234.2, 156.44 -253.54, 182.96 -283.39 M102 -177.83 C136.44 -215.81, 172.83 -260.11, 194.96 -284.27 M101.08 -176.97 C126.63 -205.29, 152.25 -235.7, 193.04 -282.53 M78.53 -140.99 C124.06 -190.04, 164.61 -233.79, 204.25 -282.67 M79.86 -140.44 C122.85 -189.48, 164.02 -236.52, 204.68 -282.73 M60.94 -106.42 C116.1 -170.23, 169.77 -233.34, 216.74 -282.73 M60.42 -105.72 C114.33 -166.27, 166.98 -227.76, 214.5 -282.75 M38.24 -68.49 C89.1 -130.53, 140.96 -190.12, 225.43 -282.48 M39.31 -68.66 C93.55 -129.3, 145.14 -190.79, 225.63 -284.17 M19.14 -32.84 C94.12 -116.43, 167.63 -201.53, 237.18 -282.95 M19.5 -33.8 C64.8 -85.38, 109.92 -137.73, 236.38 -283.5 M-0.62 0.07 C89.98 -103.13, 179.32 -206.12, 247.06 -284.54 M0.64 0.36 C76.29 -88.24, 153.48 -176.28, 247.13 -284.06 M11.17 0.42 C98.25 -97.82, 181.49 -195.39, 257.14 -283.14 M10.45 -0.01 C91.04 -94.25, 174.13 -187.71, 257.06 -284.06 M22.42 -0.38 C73.57 -58.49, 126.95 -119.72, 267.82 -282.42 M21.31 -0.21 C113.05 -105.1, 205.33 -210.43, 267.72 -283.34 M31.7 -0.4 C87.13 -59.14, 139.08 -121.86, 278.63 -284.25 M32.67 0.17 C115.73 -94.62, 199.47 -191.24, 279.19 -283.14 M43.96 -0.84 C111.73 -80.34, 181.8 -161.59, 288.5 -284.29 M42.53 0.14 C133.13 -103.41, 222.83 -206.45, 290 -283.51 M53.78 0.9 C107.9 -66.11, 164.64 -129.53, 300.85 -284.37 M53.41 -0.06 C107.88 -62.09, 160.49 -123.14, 300.58 -283.14 M65.12 1.25 C134.27 -79.14, 202.2 -158.3, 311.82 -283.12 M63.65 -0.07 C149.98 -97.98, 236.41 -197.98, 310.69 -284.08 M74.66 -0.17 C148.38 -82.91, 223.6 -168.03, 320.23 -283.54 M74.56 -0.46 C151.15 -87.8, 227.19 -175.66, 321.71 -284.27 M84.16 -0.82 C167.39 -94.45, 248.36 -187.23, 332.76 -283.57 M85.44 -0.14 C175.3 -102.82, 265.47 -206.07, 331.61 -283.52 M95.33 0.37 C190.64 -108.64, 285.19 -218.31, 342.43 -283.73 M95.15 0.91 C175.73 -94.32, 257.85 -189.38, 342.09 -283.3 M105.46 -0.38 C158.26 -60.04, 209.76 -119.73, 353.12 -284.96 M105.84 1.18 C156.8 -56.99, 205.77 -114.37, 353.57 -284.19 M115.89 -0.14 C184.52 -77.35, 252.71 -156.46, 362.96 -284.08 M116.41 1.1 C203.36 -100.54, 292.29 -203.31, 363.85 -283.31 M127.67 0.11 C210.7 -94.43, 291.88 -187.53, 374.25 -283.77 M127.41 0.2 C179.68 -60.1, 232.57 -120.22, 373.99 -283.84 M138.83 0.77 C188.68 -58.1, 237.49 -113.98, 384.16 -283.22 M137.82 0.41 C194.09 -63.68, 248.17 -126.85, 385.75 -283.97 M149.45 0.93 C232.98 -95.97, 319.14 -193.31, 394.63 -283.26 M148.52 0.15 C226.16 -90.27, 304.59 -180.65, 395.36 -284.05 M159.6 0.44 C216.02 -65.96, 271.92 -131.55, 405.48 -284.22 M158.53 0.56 C240.09 -91.03, 320.2 -182.84, 406.74 -283.97 M169.63 -0.35 C252.92 -92.95, 333.85 -186.65, 417.1 -283.84 M169.67 0.81 C268.16 -113.33, 365.6 -225.85, 416.77 -284.24 M180.45 1.49 C247.69 -74.68, 314.1 -150.27, 428.33 -284.83 M180.36 0.64 C235.44 -63.23, 290.65 -126.78, 427.24 -284.63 M191.45 1.53 C241.76 -59.1, 296.06 -118.78, 439.22 -283.04 M191.55 0.55 C263.08 -81.68, 334.35 -163.1, 438.71 -284.02 M200.77 -0.26 C263.01 -71.82, 324.65 -142.9, 448.86 -284.75 M201.7 0.72 C263.23 -69.75, 324.19 -139.98, 449.09 -283.88 M212.86 0.21 C298.14 -101.17, 386.89 -203.22, 460.54 -285.17 M212.68 -0.06 C262.38 -57.71, 312.11 -114.04, 459.54 -284.48 M221.89 1.15 C312.56 -104.2, 401.51 -206.66, 469.98 -283.26 M222.39 0.63 C293.46 -78.82, 363 -159.2, 470.72 -284.73 M233.77 -0.56 C319.18 -100.08, 407.05 -201.09, 480.12 -284.45 M233.02 0.51 C307.65 -85.64, 380.99 -170.24, 481.41 -284.48 M244.71 0.01 C299.07 -63.52, 353.22 -126.02, 491.76 -284.02 M243.7 -0.01 C333.68 -105.22, 425.79 -210.37, 492.01 -284.34 M253.62 1.01 C316.62 -67.9, 377.64 -138.75, 501.44 -284.3 M255.16 -0.05 C335.29 -90.83, 413.36 -182.38, 501.92 -284.33 M264.17 1.52 C332.14 -80.52, 402.48 -158.14, 513.81 -285.36 M265.28 1.37 C346.62 -90.45, 427.92 -183.67, 513.06 -284.94 M275.6 0.67 C351.02 -88.1, 425.12 -174.59, 522.65 -285.26 M275.22 1.31 C360.19 -97.4, 446.29 -196, 523.68 -284.57 M286.39 1.82 C344.67 -64.11, 401.33 -130.4, 532.85 -285.21 M286.53 1.2 C368.36 -91.75, 448.33 -184.97, 534.21 -284.18 M297.15 -0.38 C356.03 -67.12, 416.51 -136.37, 543.88 -285.02 M296.36 0.32 C355.48 -67.1, 414.44 -135.54, 544.73 -284.76 M307.85 -0.25 C404.2 -111.13, 504.49 -225.88, 554.85 -283.43 M307.54 0.38 C380.17 -84.94, 455.45 -170.69, 554.8 -284.74 M318.13 1.74 C367.93 -55.58, 418.3 -114.07, 564.83 -285.64 M317.56 0.79 C370.71 -57.89, 423.01 -118.53, 565.73 -284.68 M327.61 1.09 C418.89 -102.46, 505.82 -205.83, 574.96 -283.52 M328.08 1.24 C417.32 -101.63, 505.48 -202.44, 576.17 -283.94 M338.6 1 C432.42 -105.5, 524.96 -211.79, 586.48 -283.13 M338.71 0.69 C401.25 -69.5, 462.57 -139.72, 586.93 -283.57 M349.14 0.02 C426.67 -89.3, 502.24 -177.23, 597.14 -283.53 M349.34 1.07 C435.63 -99.58, 520.64 -197.46, 597 -284.02 M360.58 1.43 C453.54 -104.72, 548.09 -214.55, 608.93 -284.99 M359.91 0.22 C431.81 -79.21, 501.76 -160.02, 608.34 -284.4 M370.6 0.81 C445.59 -85.18, 520.02 -171.88, 618.06 -283.65 M371.54 0.51 C443.9 -84.14, 516.9 -169.74, 617.89 -283.98 M380.8 0.3 C451.26 -77.72, 518.26 -158.48, 629.82 -283.92 M381.48 0.53 C439.43 -65.99, 496.69 -132.15, 629.45 -284.46 M392.13 0.96 C442.6 -56.14, 492 -113.55, 639.45 -284.33 M392.7 0.04 C490.89 -111.66, 589.41 -224.69, 639.08 -283.77 M402.8 0.15 C495.31 -104.88, 589.17 -212.96, 649.45 -285 M402.78 0.15 C491.53 -100.4, 581.29 -202.46, 650.62 -284.42 M413.41 0.82 C495.1 -94.47, 576.92 -188.92, 660.16 -283.19 M413.5 -0.15 C512.27 -111.78, 609.58 -223.8, 661.06 -283.61 M424.83 1.58 C522.73 -112.06, 620.93 -225.56, 672.49 -283.19 M424.59 0.99 C494.21 -82.67, 566.81 -165.62, 671.24 -284 M433.67 1.2 C497.95 -71.54, 560.01 -144.3, 681 -284.63 M434.82 -0.05 C531.54 -112.22, 629.97 -224.92, 682.11 -283.9 M444.02 1.52 C523.85 -89.84, 602.83 -181.24, 693.48 -285.09 M444.83 0.66 C499.66 -62.55, 554.73 -126, 693.34 -284.34 M455.86 1.7 C539.15 -96.57, 626.95 -195.22, 702.33 -285.34 M455.94 0.85 C526.54 -79.39, 595.24 -159.7, 703.17 -284.1 M466.27 -0.02 C554.46 -100.51, 642.92 -203.5, 713.77 -284.74 M466.07 1.54 C542.66 -87.21, 618.22 -174.33, 714.33 -284.39 M477.19 0.11 C538.12 -69.37, 600.72 -142.03, 724.06 -283.99 M477.08 0.59 C546.13 -78.78, 615.07 -158.88, 724.19 -283.88 M487.82 2.05 C575.72 -101.07, 665.5 -203.3, 734.24 -285.42 M487.9 0.79 C553.5 -74.62, 618.03 -149.1, 735.5 -284.54 M497.31 1.76 C553.47 -63.94, 609.24 -129.58, 745.64 -283.62 M497.97 0.43 C595.89 -113.58, 695.28 -226.53, 745.35 -284.32 M507.51 0.48 C560.02 -58.01, 610.34 -116.23, 757.75 -285.1 M508.37 0.62 C598.56 -103.42, 689.09 -207.33, 757.13 -284.19 M518.45 2.04 C612.47 -108.06, 708.63 -217.19, 766.09 -284.41 M519.2 0.67 C617.99 -109.18, 714.33 -220.82, 767.05 -284.36 M531 0.52 C583.63 -61.52, 636.8 -124.04, 777.03 -283.75 M529.42 0.61 C593.63 -74.81, 660.03 -150.36, 777.32 -284.17 M539.99 1.61 C605.49 -73.26, 671.38 -149.89, 788.77 -283.65 M540.37 0.17 C635.82 -108.44, 731.42 -217.2, 788.72 -284.33 M551.4 0.64 C639.87 -100.97, 730.95 -206.07, 797.55 -284.16 M550.75 1.32 C639.43 -101.88, 729.43 -204.74, 797.93 -282.84 M560.85 1.59 C619.61 -65.67, 677.34 -131.97, 801.48 -276.41 M561.31 1.2 C625.31 -72.9, 688.89 -145.7, 802.14 -275.77 M573.5 -0.29 C628.63 -63.81, 684.4 -127.43, 806.1 -269.25 M572.33 0.67 C626 -60.06, 678.69 -120.26, 806.45 -268.97 M581.89 1.09 C659.87 -88.24, 735.04 -173.92, 809.97 -260.3 M583.37 0.95 C646.48 -72.59, 709.22 -146.5, 810.42 -260.76 M594.22 -0.43 C655.29 -71.28, 719.65 -144.08, 814.25 -254.52 M593.07 1.23 C679.83 -96.93, 763.54 -195.19, 814.59 -253.7 M603.66 -0.43 C647.05 -46.78, 690.89 -96.87, 817.76 -245.68 M604.3 -0.11 C656.9 -59.22, 708.91 -118.97, 818.91 -246.22 M614.35 0.92 C689.71 -83.64, 764.46 -170.89, 824.04 -239.45 M614.06 1 C683.05 -76.59, 751.35 -156.7, 823.94 -239.07 M625.6 0.59 C689.76 -75.26, 757.47 -153.89, 828.06 -231.93 M625.32 0.55 C690.5 -75.01, 756 -151.04, 828 -232.44 M636.39 2.67 C709.77 -83.98, 785.57 -172.77, 831.52 -225.44 M636.05 0.76 C697.8 -72.16, 760.52 -143.17, 832.36 -224.48 M645.52 0.51 C694.38 -55.91, 741.59 -111.17, 835.16 -217.36 M645.78 1.73 C696.84 -54.14, 746.41 -111.56, 835.55 -216.74 M657.43 0.52 C711.95 -61.95, 770.64 -127.7, 840.42 -210.72 M656.44 0.66 C722.75 -78, 790.95 -155.57, 840.4 -209.74 M667.49 1.3 C725.56 -67.99, 784.92 -134.3, 844.04 -202.74 M667.69 1.13 C731.15 -69.89, 793.23 -142.69, 843.77 -202.71 M677.42 1.94 C733.01 -62.25, 786.09 -122.9, 848.52 -195.72 M678.06 1.23 C720.59 -50.29, 763.79 -100.48, 847.83 -194.83 M689.91 1.7 C749.12 -70.56, 812.37 -143.43, 853.81 -188.29 M687.95 1.33 C732.84 -48.06, 775.89 -97.04, 852.73 -188.29 M699.03 -0.37 C734.13 -42.05, 772.56 -82.6, 858.76 -180.27 M699.54 1.16 C751.52 -59.23, 803.46 -119.03, 857.51 -181.66 M710.26 0.89 C744.37 -40.08, 781.85 -82.41, 862.23 -173.57 M710.05 1.7 C742.63 -34.69, 773.66 -70.99, 862.24 -172.98 M721.23 -0.38 C764.13 -53.02, 811.07 -101.57, 864.14 -167.18 M721.33 0.3 C763.2 -44.98, 804.65 -93.27, 865.06 -166.03 M732.01 2.11 C782.78 -59.79, 835.58 -121.23, 870.27 -157.62 M731.35 1.14 C785.2 -60.95, 838.99 -123.02, 869.59 -158.56 M742.16 2.37 C775.37 -37.1, 808.39 -78.35, 873.08 -151.51 M742.5 1.73 C796.06 -59.53, 848.32 -120.97, 873.97 -152.07 M751.08 2.63 C791.18 -44.73, 833.38 -91.83, 877.43 -145.74 M752.78 1.77 C794.56 -46.26, 836.12 -93.74, 878.46 -143.31 M762.68 1.71 C810.95 -54.93, 856.67 -106.26, 880.5 -134.64 M762.27 1.27 C797.32 -39.77, 833.43 -80.3, 882.01 -136.03 M773.9 -0.72 C799.57 -28.5, 826.92 -58.79, 887.62 -128.03 M773.78 1.62 C815.51 -44.59, 857.37 -92.15, 886.87 -128.25 M783.1 2.62 C819.42 -38.16, 853.01 -77.62, 890.89 -121.22 M784.18 1.31 C824.51 -44.85, 864.94 -92.1, 891.91 -123.16 M793.91 3.07 C822.61 -29.98, 849.16 -64.59, 894.85 -116.44 M793.58 1.08 C830.96 -40.53, 867.06 -82.97, 895.67 -114 M806.41 0.5 C825.47 -24.96, 847.12 -46.22, 901.01 -107.9 M805.7 1.13 C840.74 -40.44, 876.39 -81.11, 900.05 -106.28 M813.65 3.34 C842.24 -31.21, 869.56 -61.6, 901.65 -99.25 M815.72 1.89 C845.46 -32.87, 876.08 -66.94, 903.46 -100.51 M824.78 1.05 C857.59 -31.38, 885.06 -66.81, 909.01 -92.84 M826.58 1.27 C846.38 -20.35, 864.34 -41.68, 907.2 -92.77 M836.92 0.42 C865.86 -30.99, 894.76 -66.83, 912.43 -86.99 M836.15 1.66 C862.14 -26.97, 884.94 -53.85, 911.86 -85.12 M847.64 1 C861.82 -16.95, 877.84 -31.27, 916.25 -77.46 M846.94 2.16 C861.64 -16.38, 876.99 -32.41, 916.49 -78.4 M859.46 2.66 C869.86 -14.11, 885.4 -28.18, 920.22 -70.45 M857.85 0.87 C873.52 -17.14, 890.06 -34.58, 920.22 -70.5 M868.34 1.05 C885.6 -18.94, 905.45 -37.43, 925.39 -64.15 M867.95 1.1 C888.6 -22.11, 910.05 -45.07, 923.46 -63.06 M880.23 3.14 C894.21 -17.24, 911.21 -35.64, 927.93 -54.68 M880.19 1.64 C892.84 -15.39, 907.53 -30.21, 928.9 -56.76 M891.49 2.68 C897.2 -10.55, 909.17 -21.26, 932.98 -49.59 M889.17 1.01 C902.38 -13.53, 915.96 -28.49, 932.67 -48.02 M901.46 -0.28 C911.68 -11.5, 922.71 -28.02, 939.1 -40.93 M900.89 1.71 C910.16 -10.15, 918.4 -20.01, 938.01 -41.32 M912.92 0.1 C921.96 -9.95, 930.53 -22.04, 940.17 -34.68 M910.51 0.45 C922.9 -11.61, 934.52 -25.39, 940.4 -33.91 M920.61 2.97 C925.37 -2.99, 933.58 -8.83, 947.15 -28.77 M922.07 0.43 C928.06 -6.04, 934.68 -11.48, 946.64 -27.04 M931.74 0.27 C936.81 -6, 941.57 -7.67, 949.99 -18.58 M932.26 1.57 C938.45 -5.7, 944.76 -13.42, 949.96 -18.74 M942.53 0.34 C945.02 -3.01, 948.97 -4.36, 954.12 -10.24 M942.33 0.81 C945.69 -2.36, 949.25 -6.5, 953.76 -12.05 M953.93 1.62 C955.7 -0.78, 956.81 -2.72, 958.26 -4.47 M953.52 0.68 C954.86 -0.15, 955.96 -1.66, 958.35 -4.19" stroke="#82c91e" stroke-width="1" fill="none"></path><path d="M-0.38 -0.51 C283.47 -1.6, 567.28 -2.4, 961.23 0.34 M-0.1 -0.32 C256.92 2.31, 514.14 3.08, 960.57 0.99 M960.33 2 C899.87 -107.36, 837.77 -214.55, 797.37 -284.84 M960.31 0.35 C924.54 -60.82, 889.54 -123.56, 796.54 -284.5 M796.35 -285.27 C610.12 -284.6, 423.44 -283.86, 161.33 -282.75 M796.21 -284.76 C606.15 -282.97, 415.56 -282.38, 161.88 -283.05 M163.11 -283.64 C122.34 -210.55, 81.47 -139.9, 0.99 0.2 M161.29 -282.84 C129.85 -226.61, 96.98 -168.28, 0.27 -0.24 M0 0 C0 0, 0 0, 0 0 M0 0 C0 0, 0 0, 0 0" stroke="#5c940d" stroke-width="2" fill="none"></path></g></g><g stroke-linecap="round"><g transform="translate(1252.3110420475841 1344.9470426361218) rotate(0 318.8273233651496 -141.04564677839176)" fill-rule="evenodd"><path d="M161.26 -279.85 C161.26 -279.85, 161.26 -279.85, 161.26 -279.85 M161.26 -279.85 C161.26 -279.85, 161.26 -279.85, 161.26 -279.85 M139.04 -241.9 C147.96 -253.45, 152.58 -258.25, 170.47 -279.6 M139.43 -244.64 C149.03 -254.05, 157.94 -263.24, 172.75 -279.53 M118.05 -208.09 C138.23 -231.72, 160.78 -253.69, 181.81 -280.14 M120.17 -207.9 C140.69 -233.31, 164.42 -259.22, 182.43 -279.07 M97.01 -171.03 C131.39 -206.98, 159.51 -242.52, 192.21 -280.36 M97.87 -170.54 C135.1 -212.32, 170.27 -254.38, 193.95 -279.65 M77.56 -133.36 C104.95 -166.41, 137.74 -201.85, 204.48 -279.32 M78.11 -134.84 C107.15 -169.57, 138.38 -204.76, 204.41 -279.45 M55.84 -97.53 C105.45 -157.32, 155.91 -214.1, 215.07 -279.27 M56.53 -98.49 C102.27 -150.84, 146.87 -202.43, 215.05 -280.2 M36.7 -63.65 C103.85 -142.74, 173.61 -222.41, 225.98 -280.33 M36.53 -62.52 C75.96 -108.96, 114.61 -154.04, 224.31 -279.76 M16.04 -25.66 C78.75 -96.42, 139.84 -166.92, 236.18 -281.32 M15.1 -26.22 C82.55 -104.01, 149.23 -180.95, 235.64 -279.65 M1.39 1.01 C74.52 -82.09, 147.73 -164.6, 245.26 -279.95 M1.68 1.33 C95.62 -107.05, 189.97 -213.94, 245.73 -279.84 M12.41 2.42 C72.39 -68.92, 132.91 -137.35, 257.33 -279.76 M11.98 0.82 C104.6 -103.28, 197.97 -210.87, 256.41 -280.68 M22.27 1.26 C108.41 -95.09, 191.26 -192.03, 268.73 -279.31 M22.44 1.31 C100.9 -86.9, 178.83 -177.26, 267.8 -280.71 M32.92 1.84 C90.52 -62.08, 143.96 -125.14, 277.54 -279.75 M33.48 0.98 C105.41 -80.99, 175.34 -161.44, 278.66 -280.31 M43.13 1.1 C139.49 -109.63, 234.02 -218.91, 288.17 -279.51 M44.12 1 C96 -58.73, 148.56 -119.63, 288.95 -280.71 M55.56 1.14 C147.4 -107.33, 243 -216.11, 298.75 -281.34 M54.59 1.72 C114.23 -68.55, 175 -138.16, 299.99 -280.42 M66.57 2.2 C134.77 -79.84, 204.22 -158.65, 310.67 -279.73 M65.24 1.3 C143.59 -86.04, 219.77 -175.47, 309.71 -280.34 M75.8 0.53 C141.27 -70.63, 204.15 -145.78, 320.92 -280.25 M75.51 1.63 C153.11 -87.03, 230.17 -175.88, 320.18 -280.18 M85.82 0.88 C144.87 -66.13, 204.86 -133.03, 331.55 -279.61 M86.5 0.9 C157.52 -79.76, 227.85 -160.91, 331.61 -279.89 M96.91 2.19 C178.73 -92.35, 260.07 -187.69, 342.05 -280.04 M97.46 0.73 C189.78 -106.09, 282.41 -213.53, 342.49 -280.98 M106.82 0.32 C164.59 -66.06, 222.5 -131.63, 351.47 -281.68 M108.4 1.17 C166.25 -67.08, 224.97 -133.99, 352.26 -280.63 M117.73 0.55 C184.34 -73.98, 249.11 -150.56, 363.04 -279.79 M118.98 0.51 C210.65 -103.85, 301.14 -209.01, 363.81 -280.31 M128.65 0.82 C177.88 -57.51, 228.6 -113.83, 374.01 -281.6 M128.74 1.26 C208.84 -90.85, 289.15 -183.85, 373.94 -281.14 M139.98 1.77 C206.35 -78.8, 275.86 -158.33, 385.23 -281.52 M139.61 1.44 C202.63 -72.99, 266.69 -145.37, 384.47 -280.31 M150.81 -0.24 C209.74 -67.03, 268.1 -135.85, 395.85 -280.39 M150.01 0.54 C230.37 -92.35, 310.88 -184.97, 395.06 -281.04 M160.98 1.79 C244.06 -96.62, 328.02 -194.58, 405.55 -280.34 M161.1 0.57 C222.71 -67.92, 283.9 -136.69, 405.81 -280.47 M170.84 1.4 C221.95 -56.63, 271.93 -115.2, 416.6 -279.51 M172.01 1.06 C236.68 -75.68, 303.19 -152.56, 416.2 -280.89 M183.37 0.96 C233.53 -56.79, 284.22 -115.64, 426.27 -281.62 M182.51 1.3 C274.76 -104.86, 367.2 -210.68, 426.47 -281.25 M194.08 -0.23 C274.17 -91.39, 355.16 -184.24, 438.74 -280.89 M193.08 0.23 C245.68 -61.97, 299.1 -122.04, 437.74 -281.05 M202.93 1.65 C293.82 -102.68, 385.3 -208.89, 447.67 -281.4 M203.91 1.13 C283.47 -90.57, 363.1 -181.07, 448.55 -280.45 M214.07 0.65 C309.47 -109.56, 404.32 -220.49, 457.91 -282.03 M213.79 0.54 C276.72 -73.55, 341.05 -146.75, 458.61 -280.43 M225.68 0.86 C299.24 -86.03, 375.91 -173.17, 470.51 -281.08 M225.16 0.24 C276.56 -57.05, 327.01 -114.9, 469.03 -280.52 M234.61 -0.4 C320.34 -97.52, 404.47 -194.82, 478.65 -279.36 M235.7 1.07 C317.49 -93.53, 400.84 -187.16, 478.63 -279.86 M245.85 0 C303.61 -68.48, 362.44 -134.46, 483.21 -270.98 M245.84 0.25 C337.03 -102.98, 428.34 -208.03, 482.88 -272.2 M257.59 1.56 C328.53 -76.95, 397.29 -158.76, 487.02 -264.11 M256.45 1.16 C308 -60.18, 358.81 -120.07, 486.99 -264.49 M268.02 0.06 C349.35 -94.7, 435.61 -191.23, 489.96 -256.49 M267.84 0.62 C324.6 -63.9, 379.76 -127.79, 490.42 -256.8 M277.74 1.03 C348.05 -84.13, 420.94 -166.76, 494.81 -249.46 M278.46 0.2 C350.42 -81.93, 422.5 -164.92, 495.59 -250.56 M289.73 1.79 C342.29 -60.13, 394.44 -124.16, 498.96 -242.22 M289.01 1.01 C335.69 -54.99, 382.03 -108.71, 500.15 -242.98 M297.82 -0.61 C355.87 -64.41, 410.95 -129.11, 503.27 -235.95 M298.66 0.62 C361.29 -70.24, 422.7 -142.37, 503.58 -234.34 M308.62 -0.34 C390.37 -89.43, 467.57 -180.39, 509.29 -227.52 M309.38 -0.21 C385.05 -86.37, 460.23 -173.17, 507.71 -228.26 M321.73 0.75 C383.75 -70.25, 444.44 -143.43, 511.36 -222.11 M320.55 -0.37 C366.54 -50.61, 410.3 -101.34, 512.55 -220.34 M331.61 1.76 C382.12 -59.37, 432.64 -119.28, 517.16 -212.44 M331.8 -0.06 C370.13 -45.1, 410.79 -91.65, 516.63 -212.71 M342.17 0.07 C385.44 -48.93, 428.77 -98.69, 521.79 -206.6 M341.78 0.42 C383.43 -46.16, 425.07 -94.56, 521.22 -205.67 M351.57 1.19 C411.78 -70.06, 473.59 -139.03, 525.39 -197.52 M352.94 0.48 C399.57 -55.86, 449.46 -112.51, 524.75 -197.61 M364.12 0.5 C425.48 -67.02, 482.34 -134.91, 528.22 -191.72 M362.5 0.59 C410.17 -51.73, 456.42 -102.83, 529.01 -191.5 M373.98 -0.86 C407.95 -39.69, 440.45 -79.9, 534.15 -184.01 M373.57 0.56 C431.4 -67.68, 487.81 -134.24, 533.69 -184.14 M383.94 1.72 C439.9 -62.5, 492.32 -121.67, 537.89 -177.57 M384.27 0.97 C437.88 -61.24, 492.21 -122.04, 537.14 -177.3 M395.56 -0.19 C430.55 -41, 465.39 -81.69, 541.43 -167.27 M394.24 -0.48 C433.59 -44.51, 471.49 -88.66, 542.22 -168.31 M405.08 -0.8 C445.41 -43.01, 481.53 -89.57, 544.56 -160.39 M405.07 -0.62 C448.36 -46.79, 490.19 -94.37, 545.41 -161.15 M416.74 0.28 C463.58 -55.2, 511.69 -110.74, 551.99 -153.02 M415.31 0.51 C447.03 -35.3, 478.15 -71.76, 551.37 -153.81 M428.74 1.75 C470.27 -48.53, 512.49 -98.53, 556.27 -147.34 M427.77 -0.97 C475.65 -57.6, 524.86 -114.71, 554.93 -147.65 M438.81 0.15 C467.5 -33.71, 495.72 -70.55, 558.03 -137.73 M436.74 0.1 C483.57 -52.02, 529.53 -105.84, 559.22 -139.44 M448.79 -0.78 C484.72 -42.89, 521.45 -81.43, 561.39 -133.7 M447.36 0.58 C485.98 -43.01, 523.61 -86.57, 562.62 -131.66 M459.76 -1.86 C501.79 -47.29, 544.1 -97.78, 565.76 -125.78 M458.36 0.45 C482.42 -29.7, 506.09 -57.44, 567.8 -124.79 M467.6 -0.01 C505.36 -41.46, 539.47 -81.38, 570.87 -117.75 M470.19 0.55 C497.5 -32.76, 526.25 -65.45, 571.45 -118.36 M478.5 0.37 C516.33 -39.79, 549.65 -82.3, 576.24 -110.74 M479.29 0.41 C512.25 -38.33, 544.42 -75.39, 576.43 -109.78 M491.76 0.53 C517.91 -30.94, 546.19 -67.33, 578.01 -103.63 M489.66 0.68 C508.71 -22.81, 528.04 -44.85, 579.46 -103.56 M501.96 0.95 C533.53 -37.1, 564.97 -73.34, 585.1 -93.38 M499.75 -0.09 C526.27 -29.18, 553.47 -61.28, 583.95 -96.3 M510.52 2.3 C534.02 -24.12, 557.06 -50.86, 587.43 -87.24 M510.75 0.81 C539.16 -32.25, 568.68 -63.66, 588.95 -87.72 M523.8 -1.04 C548.76 -30.52, 576.94 -62.89, 592.72 -79.24 M521.52 0.98 C538.29 -17.29, 553.14 -34.38, 592.8 -81.87 M531.96 0.27 C553.93 -25.88, 574.4 -49.08, 597.94 -74.23 M532.11 -0.58 C556.97 -28.16, 582.51 -57.61, 597.23 -73.92 M544.45 -0.99 C559.27 -16.41, 571.12 -32.87, 602.23 -64.34 M542.07 0.3 C560.1 -19.16, 579 -38.92, 601.1 -65.39 M553.53 -0.08 C574.06 -19.91, 590.17 -43, 603.67 -58.01 M554.66 0.64 C573.52 -21.25, 593.74 -44.86, 605.85 -59.88 M565.75 0.2 C575.93 -13.87, 588.55 -29.13, 608.17 -52.47 M565.13 0.15 C577 -15.05, 591.05 -29.84, 609.2 -52.36 M573.45 1.98 C588.98 -15.44, 604.9 -33.31, 612.9 -45.73 M574.95 0.93 C585.85 -12.12, 597.98 -25.26, 613.34 -43.91 M586.28 0.87 C593.2 -10.83, 605.25 -21.42, 619.19 -37.13 M586.07 1.22 C597.56 -13.85, 608.33 -26.75, 618.48 -36.93 M594.69 -1.59 C603 -5.56, 607.21 -15.3, 620.64 -27.54 M597.16 1.16 C603.07 -8.34, 609.13 -15.43, 621.85 -30.22 M605.4 -1.38 C613.79 -6.02, 618.1 -12.81, 627.32 -23.63 M605.86 0.55 C612.77 -5.58, 618.19 -12.09, 626.54 -21.88 M616.95 0.44 C621.92 -4.35, 624.4 -7.79, 630.62 -14.35 M617.07 0.56 C622.63 -5.75, 626.28 -9.43, 631.16 -14.65 M627.65 -0.8 C631.06 -3.1, 632.39 -4.95, 634.69 -7.21 M627.62 -0.17 C630.12 -2.41, 631.58 -3.83, 634.34 -7.02" stroke="#fab005" stroke-width="1" fill="none"></path><path d="M-0.51 -0.41 C173.31 0.31, 344.96 0.67, 636.48 -1.83 M-0.32 0 C225.47 0.38, 451.77 -0.85, 637.13 -1.27 M638.16 -2.01 C600.4 -67.25, 563.64 -130.19, 476.5 -282.21 M636.48 -1.9 C587.06 -91.58, 534.9 -181.03, 476.84 -281.1 M475.63 -280.81 C360.73 -280.77, 244.57 -280.89, 161.97 -279.62 M476.53 -280.43 C388.12 -280.54, 300.53 -280.72, 161.44 -279.97 M160.68 -280.29 C101.36 -172.46, 39.27 -63.33, 0.21 -1.33 M161.48 -279.18 C106.76 -188.96, 54.77 -98.17, -0.24 -0.24 M0 0 C0 0, 0 0, 0 0 M0 0 C0 0, 0 0, 0 0" stroke="#e67700" stroke-width="2" fill="none"></path></g></g><g stroke-linecap="round"><g transform="translate(1413.2201329566742 1064.9470426361218) rotate(0 157.1269536401992 -138.7237495419704)" fill-rule="evenodd"><path d="M159.31 -277.57 C159.31 -277.57, 159.31 -277.57, 159.31 -277.57 M159.31 -277.57 C159.31 -277.57, 159.31 -277.57, 159.31 -277.57 M141.07 -242.28 C147.18 -252.91, 153.22 -259.42, 163.99 -270.69 M139.33 -241.24 C143.6 -247.3, 148.82 -253.7, 163.03 -270.8 M119.99 -205.4 C132.95 -226.2, 152.54 -244.31, 168.38 -263.72 M117.25 -206.22 C131.37 -220.91, 145.59 -235.2, 168.46 -263 M96.75 -171.6 C121.7 -197.81, 148.45 -227.02, 171.95 -254.62 M96.95 -170.69 C125.27 -201.75, 152.93 -233.81, 173.02 -255.49 M77.41 -132.4 C110.42 -172.85, 143.97 -210.85, 175.83 -246.74 M77.9 -133.36 C108.01 -168.65, 137.9 -204.02, 176.54 -248.94 M58.03 -99.77 C102.06 -145.78, 143.55 -196.28, 180.98 -241.89 M56.55 -98.22 C105.41 -153.47, 153.71 -208.65, 180.85 -240.55 M36.84 -62.98 C90.07 -125.42, 146.43 -186.81, 185.15 -233.53 M35.86 -62.67 C65.84 -97.75, 96.63 -131.99, 184.19 -232.66 M14.24 -27.44 C79.19 -101.23, 143.47 -172.51, 188.16 -227.16 M15.43 -25.8 C72.36 -94.07, 130.7 -160.74, 188.76 -225.91 M2.55 2.77 C50.16 -53.37, 98.06 -108.75, 191.81 -218.93 M1.93 1.82 C57.54 -63.18, 114.09 -128.57, 193.66 -219 M11.77 0.29 C55.75 -48.89, 100.65 -99.87, 197.46 -210.23 M12.16 0.69 C52.87 -46.4, 95.3 -95.93, 197.59 -211.89 M24.22 0.21 C63.53 -47.9, 106.49 -95.64, 201.82 -202.74 M22.19 0.68 C74.74 -54.99, 123.09 -113.4, 200.64 -203.64 M33.42 2.54 C72.66 -42.97, 110.86 -87.45, 206.53 -196.17 M33.49 0.78 C78.6 -48.33, 121.07 -98.24, 204.71 -197.04 M44.87 2.22 C82.03 -43.14, 120.52 -86.51, 210.09 -189.13 M43.72 1.67 C80.21 -42.06, 118.38 -84.43, 209.34 -188.22 M55.21 0.73 C95.58 -47.16, 137.44 -96.94, 214.54 -182.8 M55.07 0.43 C114.62 -67.02, 172.82 -132.82, 212.91 -180.7 M65.94 -0.71 C122.1 -64.04, 177.67 -129.11, 216.81 -175.53 M66.75 0.21 C122.36 -64.05, 178.95 -127.54, 218.07 -174.8 M78.12 0.54 C119.93 -51.65, 165.74 -102.15, 223.16 -166.88 M76.84 1.17 C118.3 -45.86, 157.3 -91.52, 222.3 -167.5 M86.41 0.95 C118.64 -33.78, 145.17 -67.57, 226.54 -159.36 M88.01 0.07 C129.32 -46.62, 170.55 -94.23, 226.64 -160.14 M97.59 -0.37 C142.45 -49.09, 188.29 -99.72, 231.61 -152.36 M97.63 0.13 C130.75 -37.24, 163.02 -74.85, 231.2 -151.81 M110.39 2.01 C158.86 -54.89, 206.01 -111.77, 235.17 -142.99 M108.01 1 C154.39 -53.27, 200.05 -105.12, 233.62 -145.25 M118.02 0.58 C163.05 -50.28, 209.84 -104.49, 236.61 -138.28 M119.41 0.13 C157.68 -46.31, 198.31 -91.49, 238.34 -137.41 M129.08 1.23 C168.35 -43.45, 204.91 -86.71, 243.82 -128.11 M129.01 1.15 C163.07 -39.25, 196.15 -75.69, 242.98 -130.56 M140.2 -0.77 C171.79 -36.73, 206.19 -75.84, 245.64 -122.3 M140.92 0.2 C174.22 -36.65, 205.68 -75.5, 246.4 -123.04 M152.45 -1.35 C184.63 -39.16, 217.48 -78.21, 249.91 -116.09 M151.91 0.14 C186.29 -40.68, 224.07 -82.42, 251.88 -115.93 M160.5 -0.9 C184.28 -26.61, 203.61 -50.42, 255.88 -107.22 M161.77 0.05 C194.87 -37.76, 228.28 -76.9, 254.82 -107.36 M174.5 -1.76 C201.58 -35.45, 228.8 -67.45, 260.1 -101.34 M172.52 -1.49 C190.8 -20.94, 209.99 -41.55, 259.87 -101.23 M184.56 -1.22 C208.08 -28.63, 230.87 -54.02, 265.57 -93.33 M184.01 -0.69 C215.11 -37.5, 246.16 -73.84, 263.32 -93.7 M194.53 -1.03 C215.45 -24.48, 234.48 -47.73, 266.25 -83.77 M195.09 -1.29 C211.47 -20.45, 228.42 -42.03, 266.85 -84.97 M203.26 -0.64 C224.26 -21.16, 241.88 -40.8, 272.22 -80.18 M204.01 -1.05 C223.86 -23.93, 245.64 -47.74, 271.96 -77.77 M217.03 -1.7 C238.2 -25.45, 257.55 -49.44, 275.51 -70.54 M216.18 -1.48 C228.64 -16.44, 242.85 -31.99, 277.07 -70.06 M226.08 -0.57 C247.68 -25.64, 267.19 -48.17, 278.61 -64.28 M225.89 -1.65 C243.85 -21.01, 261.97 -42.77, 281.23 -63.38 M237.1 -0.8 C255.25 -21.71, 274.56 -43.01, 284.28 -57.8 M236.1 0.12 C250.7 -17.06, 265.94 -34.05, 285.21 -55.5 M245.74 -1.67 C256.61 -13.87, 266.77 -24.71, 288.75 -47.68 M248.14 -1.52 C259.21 -14.37, 273.47 -29.89, 287.95 -48.98 M257.75 -3.38 C266.96 -14.46, 279.2 -24.43, 294.2 -39.23 M258.16 -1.45 C271.14 -14.59, 282.7 -27.91, 292.27 -40.92 M270.87 -0.6 C277.24 -8.86, 280.4 -15.54, 297.9 -35.67 M270.25 -0.81 C279.54 -14.49, 289.8 -25.77, 297.32 -33.42 M279.26 -3.46 C289.2 -9.39, 297.44 -21.47, 302.13 -27.72 M280.11 -1.26 C285.1 -6.92, 289.3 -13.28, 301.66 -26.36 M291.38 -3.03 C294.38 -8.55, 300.73 -16.3, 306.58 -18.53 M290.16 -1.75 C295.38 -7.06, 299.86 -12.21, 304.96 -19.63 M302.47 -1.02 C305.24 -5.52, 305.64 -9.28, 310.07 -12.65 M301.73 -1.29 C303.84 -5.2, 306.98 -8.09, 309.36 -11.83 M311.63 -1.6 C312.42 -2.42, 312.89 -3.42, 313.62 -4.12 M311.89 -1.78 C312.63 -2.76, 313.25 -3.5, 313.96 -3.99" stroke="#fd7e14" stroke-width="1" fill="none"></path><path d="M-0.73 1.02 C113.74 -0.75, 229.72 -2.27, 313.98 -2.62 M-0.01 -0.61 C75.42 1.27, 149.11 0.13, 314.98 -3.88 M313.99 -3.81 C274.33 -74.24, 235.64 -145.9, 158.33 -277.52 M314.11 -2.88 C275.82 -77.06, 234.92 -148.79, 159.46 -277.31 M159.75 -277.01 C116.32 -202.51, 72.76 -128.23, 0 -0.3 M160.12 -278.47 C101.35 -176.83, 42.48 -74.54, -0.35 0.58 M0 0 C0 0, 0 0, 0 0 M0 0 C0 0, 0 0, 0 0" stroke="#d9480f" stroke-width="2" fill="none"></path></g></g><g transform="translate(1500.8550724637735 904.1666666666674) rotate(0 72.5615942028985 75.00749063670423)"><text x="72.56159420289856" y="52.00749063670416" font-family="Virgil, Segoe UI Emoji" font-size="58.70151441133368px" fill="#d9480f" text-anchor="middle" style="white-space: pre;" direction="ltr">Code</text><text x="72.56159420289856" y="127.01498127340832" font-family="Virgil, Segoe UI Emoji" font-size="58.70151441133368px" fill="#d9480f" text-anchor="middle" style="white-space: pre;" direction="ltr">Style</text></g><g transform="translate(1474.9166666666715 1166.6724485305926) rotate(0 88.5 37.5)"><text x="88.5" y="53" font-family="Virgil, Segoe UI Emoji" font-size="58.70151441133368px" fill="#e67700" text-anchor="middle" style="white-space: pre;" direction="ltr">Tests</text></g><g transform="translate(1354.9166666666715 1448.2727667190206) rotate(0 208.5 37.5)"><text x="208.5" y="53" font-family="Virgil, Segoe UI Emoji" font-size="58.70151441133368px" fill="#5c940d" text-anchor="middle" style="white-space: pre;" direction="ltr">Documentation</text></g><g transform="translate(1338.4166666666715 1695.4324123193524) rotate(0 225 75.5)"><text x="225" y="52.5" font-family="Virgil, Segoe UI Emoji" font-size="58.70151441133368px" fill="#0b7285" text-anchor="middle" style="white-space: pre;" direction="ltr">Implementation </text><text x="225" y="128" font-family="Virgil, Segoe UI Emoji" font-size="58.70151441133368px" fill="#0b7285" text-anchor="middle" style="white-space: pre;" direction="ltr">Semantics</text></g><g transform="translate(1353.9166666666715 2013.7709030435813) rotate(0 209.5 37.5)"><text x="209.5" y="53" font-family="Virgil, Segoe UI Emoji" font-size="58.70151441133368px" fill="#5f3dc4" text-anchor="middle" style="white-space: pre;" direction="ltr">API Semantics</text></g><g transform="translate(1894.333333333334 794.3333333333335) rotate(0 171.5 25)"><text x="0" y="35" font-family="Virgil, Segoe UI Emoji" font-size="38.973124300111664px" fill="#e67700" text-anchor="start" style="white-space: pre;" direction="ltr">Questions to ask:</text></g><g transform="translate(2402.1666666666715 1646.8333333333344) rotate(0 171.5 25)"><text x="0" y="35" font-family="Virgil, Segoe UI Emoji" font-size="38.973124300111664px" fill="#0b7285" text-anchor="start" style="white-space: pre;" direction="ltr">Questions to ask:</text></g><g transform="translate(1402.1666666666715 425.1666666666679) rotate(0 171.5 25)"><text x="0" y="35" font-family="Virgil, Segoe UI Emoji" font-size="38.973124300111664px" fill="#d9480f" text-anchor="start" style="white-space: pre;" direction="ltr">Questions to ask:</text></g><g transform="translate(2085.5000000000036 1251.8333333333344) rotate(0 171.5 25)"><text x="0" y="35" font-family="Virgil, Segoe UI Emoji" font-size="38.973124300111664px" fill="#5c940d" text-anchor="start" style="white-space: pre;" direction="ltr">Questions to ask:</text></g><g transform="translate(1791.2428523833114 2284.1666666666674) rotate(0 171.5 25)"><text x="0" y="35" font-family="Virgil, Segoe UI Emoji" font-size="38.973124300111664px" fill="#5f3dc4" text-anchor="start" style="white-space: pre;" direction="ltr">Questions to ask:</text></g><g transform="translate(144.0000000000009 952.8333333333312) rotate(0 148 25)"><text x="148" y="35" font-family="Virgil, Segoe UI Emoji" font-size="38.973124300111664px" fill="#c92a2a" text-anchor="middle" style="white-space: pre;" direction="ltr">Automate here!</text></g><g transform="translate(159.49999999999727 1655.6666666666647) rotate(0 136 75.5)"><text x="136" y="35.333333333333336" font-family="Virgil, Segoe UI Emoji" font-size="38.973124300111664px" fill="#c92a2a" text-anchor="middle" style="white-space: pre;" direction="ltr">Focus your</text><text x="136" y="85.66666666666667" font-family="Virgil, Segoe UI Emoji" font-size="38.973124300111664px" fill="#c92a2a" text-anchor="middle" style="white-space: pre;" direction="ltr">review efforts</text><text x="136" y="136" font-family="Virgil, Segoe UI Emoji" font-size="38.973124300111664px" fill="#c92a2a" text-anchor="middle" style="white-space: pre;" direction="ltr">here!</text></g><g stroke-linecap="round"><g transform="translate(1701.666666666666 946.6666666666647) rotate(0 32.20499999999993 -113)"><path d="M0 0 C10 -20, 50 -82.33, 60 -120 C70 -157.67, 60 -208.33, 60 -226 M0 0 C10 -20, 50 -82.33, 60 -120 C70 -157.67, 60 -208.33, 60 -226" stroke="#d9480f" stroke-width="4" fill="none"></path></g><g transform="translate(1701.666666666666 946.6666666666647) rotate(0 32.20499999999993 -113)"><path d="M72.48 -198.72 C67.78 -208.99, 63.09 -219.26, 60 -226 M72.48 -198.72 C69.24 -205.81, 65.99 -212.9, 60 -226" stroke="#d9480f" stroke-width="4" fill="none"></path></g><g transform="translate(1701.666666666666 946.6666666666647) rotate(0 32.20499999999993 -113)"><path d="M52.03 -197.08 C55.03 -207.96, 58.03 -218.85, 60 -226 M52.03 -197.08 C54.1 -204.6, 56.17 -212.11, 60 -226" stroke="#d9480f" stroke-width="4" fill="none"></path></g></g><g stroke-linecap="round"><g transform="translate(1765.666666666666 1190.6666666666647) rotate(0 27 -114)"><path d="M0 0 C2 -21.67, 3 -92, 12 -130 C21 -168, 47 -211.67, 54 -228 M0 0 C2 -21.67, 3 -92, 12 -130 C21 -168, 47 -211.67, 54 -228" stroke="#e67700" stroke-width="4" fill="none"></path></g><g transform="translate(1765.666666666666 1190.6666666666647) rotate(0 27 -114)"><path d="M50.72 -198.18 C51.83 -208.25, 52.94 -218.33, 54 -228 M50.72 -198.18 C51.69 -206.99, 52.66 -215.8, 54 -228" stroke="#e67700" stroke-width="4" fill="none"></path></g><g transform="translate(1765.666666666666 1190.6666666666647) rotate(0 27 -114)"><path d="M32.32 -207.26 C39.65 -214.27, 46.97 -221.27, 54 -228 M32.32 -207.26 C38.73 -213.39, 45.13 -219.52, 54 -228" stroke="#e67700" stroke-width="4" fill="none"></path></g></g><g stroke-linecap="round"><g transform="translate(1925.666666666666 1454.6666666666647) rotate(0 43.82400000000007 -65.83950000000004)"><path d="M0 0 C0 0, -5.33 14.33, 0 0 C5.33 -14.33, 17 -63, 32 -86 C47 -109, 80.33 -129.33, 90 -138 M0 0 C0 0, -5.33 14.33, 0 0 C5.33 -14.33, 17 -63, 32 -86 C47 -109, 80.33 -129.33, 90 -138" stroke="#5c940d" stroke-width="4" fill="none"></path></g><g transform="translate(1925.666666666666 1454.6666666666647) rotate(0 43.82400000000007 -65.83950000000004)"><path d="M73.88 -112.7 C77.25 -117.98, 80.61 -123.27, 90 -138 M73.88 -112.7 C80.02 -122.34, 86.16 -131.97, 90 -138" stroke="#5c940d" stroke-width="4" fill="none"></path></g><g transform="translate(1925.666666666666 1454.6666666666647) rotate(0 43.82400000000007 -65.83950000000004)"><path d="M61.39 -128.98 C67.36 -130.87, 73.34 -132.75, 90 -138 M61.39 -128.98 C72.29 -132.42, 83.18 -135.85, 90 -138" stroke="#5c940d" stroke-width="4" fill="none"></path></g></g><g stroke-linecap="round"><g transform="translate(2093.666666666666 1776.6666666666647) rotate(0 99 -45)"><path d="M0 0 C13.67 -12.33, 49 -59, 82 -74 C115 -89, 178.67 -87.33, 198 -90 M0 0 C13.67 -12.33, 49 -59, 82 -74 C115 -89, 178.67 -87.33, 198 -90" stroke="#0b7285" stroke-width="4" fill="none"></path></g><g transform="translate(2093.666666666666 1776.6666666666647) rotate(0 99 -45)"><path d="M170.54 -77.91 C178.51 -81.42, 186.49 -84.93, 198 -90 M170.54 -77.91 C178.48 -81.41, 186.42 -84.9, 198 -90" stroke="#0b7285" stroke-width="4" fill="none"></path></g><g transform="translate(2093.666666666666 1776.6666666666647) rotate(0 99 -45)"><path d="M169.2 -98.39 C177.56 -95.95, 185.92 -93.52, 198 -90 M169.2 -98.39 C177.53 -95.96, 185.86 -93.54, 198 -90" stroke="#0b7285" stroke-width="4" fill="none"></path></g></g><g stroke-linecap="round"><g transform="translate(1625.666666666666 2128.6666666666647) rotate(0 41 94)"><path d="M0 0 C4 17, 10.33 70.67, 24 102 C37.67 133.33, 72.33 173.67, 82 188 M0 0 C4 17, 10.33 70.67, 24 102 C37.67 133.33, 72.33 173.67, 82 188" stroke="#5f3dc4" stroke-width="4" fill="none"></path></g><g transform="translate(1625.666666666666 2128.6666666666647) rotate(0 41 94)"><path d="M56.89 171.58 C66.34 177.76, 75.79 183.94, 82 188 M56.89 171.58 C62.33 175.14, 67.77 178.7, 82 188" stroke="#5f3dc4" stroke-width="4" fill="none"></path></g><g transform="translate(1625.666666666666 2128.6666666666647) rotate(0 41 94)"><path d="M73.32 159.28 C76.58 170.09, 79.85 180.9, 82 188 M73.32 159.28 C75.2 165.51, 77.08 171.73, 82 188" stroke="#5f3dc4" stroke-width="4" fill="none"></path></g></g><g stroke-linecap="round"><g transform="translate(1184.969844688581 190.5295669163952) rotate(0 -26.358902330751107 59.984794272658746)" fill-rule="evenodd"><path d="M0.6 0.64 L-104.66 -2.27 L-105.3 119.71 L53.75 118.35 L4.26 71.35 L-0.22 1.17" stroke="none" stroke-width="0" fill="#82c91e" fill-rule="evenodd"></path><path d="M1.43 -0.63 C-25.06 -1.45, -49.02 0.79, -106.02 -2.44 M-0.98 -0.47 C-33.1 -0.67, -68.13 -1.05, -105.53 -0.84 M-107.25 -0.44 C-104.63 43.79, -103.41 88.11, -103.39 121.57 M-105.98 0.1 C-105.63 33.87, -104.91 67.12, -104.15 121.07 M-105.23 120.61 C-42.07 117.7, 18.16 119.28, 54.05 116.49 M-104.07 122.2 C-53.48 123.03, -1.11 121.48, 53.41 118.07 M52.5 116.48 C39.26 104.23, 24.82 92.68, 1.48 72.3 M54.53 117.95 C37.99 104.59, 20.62 88.83, 1.75 72.52 M2.24 74.03 C1.47 53.65, -0.92 33.37, 0.43 0.61 M2.88 72.29 C3.23 52.07, 2.64 32.74, 0.5 -0.35 M0 0 C0 0, 0 0, 0 0 M0 0 C0 0, 0 0, 0 0" stroke="#5c940d" stroke-width="4" fill="none"></path></g></g><g stroke-linecap="round"><g transform="translate(1236.155589083693 308.3488942914919) rotate(0 -24.43943781200346 -24.211605835503633)" fill-rule="evenodd"><path d="M0.35 -1.13 L-0.98 -46.23 L-48.34 -46.24 L-1.92 -1.45" stroke="none" stroke-width="0" fill="#5c940d" fill-rule="evenodd"></path><path d="M-0.63 -0.6 C-0.82 -12.65, 1.37 -25.35, -2.54 -47.81 M-0.47 0.72 C0.76 -13.18, 0.4 -25.12, -0.94 -47.5 M-0.53 -47.06 C-14.29 -46.14, -27.95 -46.32, -48.2 -46.88 M0 -49.15 C-17.59 -48.18, -35.7 -46.48, -48.7 -45.62 M-49.16 -44.56 C-32.93 -29.27, -13.9 -14.71, -1.92 0.52 M-47.57 -46.92 C-36.96 -36.08, -26.69 -26.29, -0.35 -0.09 M0 0 C0 0, 0 0, 0 0 M0 0 C0 0, 0 0, 0 0" stroke="#5c940d" stroke-width="2" fill="none"></path></g></g><g stroke-linecap="round" transform="translate(1183.6661251172168 126.16979455516412) rotate(0 592.63475643572 66.35626349203767)"><path d="M-1.13 -0.1 L1187.24 -0.14 L1185.48 130.79 L-1.45 133.15" stroke="none" stroke-width="0" fill="#82c91e"></path><path d="M-0.24 -0.32 C302.78 2.15, 605.55 0.84, 1185.43 -0.29 M0.29 0.22 C246.6 2.4, 493.7 2.2, 1185.55 -0.12 M1186.41 -0.68 C1186.24 39.63, 1185.59 82.48, 1184.84 134.02 M1184.32 0.58 C1184.5 37.81, 1185.57 75.58, 1186.1 133.08 M1186.03 132.17 C732.99 131.02, 279.73 129.68, 0.21 132.1 M1185.08 133.08 C947.8 135.87, 709.98 135.57, -0.04 132.92 M0.69 132.36 C2.03 103.56, -0.03 71.52, 0.45 -0.2 M0.78 133.69 C-1.04 89.15, -1.63 45.7, -0.42 0.18" stroke="#5c940d" stroke-width="4" fill="none"></path></g><g transform="translate(1445.5578255079213 157.33080544854056) rotate(359.8655539771131 348.4450453156644 35.84265440096033)"><text x="348.44504531566423" y="50.685308801920414" font-family="Virgil, Segoe UI Emoji" font-size="56.022134067620115px" fill="#ffff" text-anchor="middle" style="white-space: pre;" direction="ltr">The Code Review Pyramid</text></g><g stroke-linecap="round"><g transform="translate(2476.5789202321666 185.64222733352653) rotate(0 -74.13312989781843 56.16096474786082)" fill-rule="evenodd"><path d="M-0.63 -1.85 L-106.07 -4.63 L-105.31 71.45 L-146.87 118.47 L-1.5 115.35 L1.26 -0.87" stroke="none" stroke-width="0" fill="#82c91e" fill-rule="evenodd"></path><path d="M-0.09 1.62 C-28.66 -3.32, -56.5 -3.61, -107.89 -6.54 M-0.48 0.41 C-26.59 -0.64, -52.99 -2.04, -105.95 -5.29 M-104.12 -6.18 C-104.71 19.76, -106.79 45.4, -107.5 71.83 M-106.6 -4.79 C-106.71 24.7, -106.86 55.32, -106.41 71.89 M-105.84 73.6 C-116.45 81.36, -126.16 93.14, -148.64 118.5 M-106.96 72.57 C-122.1 88.57, -136.17 105.83, -147.33 116.67 M-145.45 118.86 C-118.25 117.68, -87.69 117.13, -2.29 118.31 M-146.65 117.47 C-110.78 116.21, -74.14 115.79, -3.45 116.7 M-4.81 115.29 C-1.22 70.83, -1.13 21.95, 0.37 1.08 M-1.94 116.14 C-2.5 78.67, -2.81 41.52, -0.5 -0.68 M0 0 C0 0, 0 0, 0 0 M0 0 C0 0, 0 0, 0 0" stroke="#5c940d" stroke-width="4" fill="none"></path></g></g><g stroke-linecap="round"><g transform="translate(2327.0799092278157 301.1031589540653) rotate(0 19.35371401130942 -19.396244196774205)" fill-rule="evenodd"><path d="M-0.14 0.21 L38.2 -40.57 L0.36 -37.92 L-0.63 -1.73" stroke="none" stroke-width="0" fill="#5c940d" fill-rule="evenodd"></path><path d="M1.62 -0.22 C9.33 -10.15, 21.09 -22.94, 38.15 -40.06 M0.41 0.28 C14.67 -13.68, 29.37 -28.84, 39.4 -38.94 M38.51 -37.83 C25.78 -38.95, 12.73 -38.58, -0.42 -36.78 M39.9 -38.59 C31.37 -38.38, 23.98 -38.27, -0.35 -39.01 M1.36 -38.24 C-2.22 -22.81, -1.8 -10.12, 1.21 1.26 M0.32 -38.88 C-0.05 -28.88, 0.84 -19.73, -0.63 -0.97 M0 0 C0 0, 0 0, 0 0 M0 0 C0 0, 0 0, 0 0" stroke="#5c940d" stroke-width="2" fill="none"></path></g></g><g stroke-linecap="round"><g transform="translate(1178.3449070145302 190.86751437371277) rotate(0 -23.473782558314042 58.828144693394734)" fill-rule="evenodd"><path d="M-97.97 0.96 C-97.97 0.96, -97.97 0.96, -97.97 0.96 M-97.97 0.96 C-97.97 0.96, -97.97 0.96, -97.97 0.96 M-99.29 13.41 C-93.32 9.56, -90.16 3.61, -86.1 2.55 M-97.82 14.01 C-95.44 10.01, -92.02 5.27, -86.61 0.23 M-97.66 26.47 C-91.75 18.46, -83.92 8.14, -76.23 0.69 M-97.73 26.34 C-91.61 18.81, -84.78 9.81, -75.89 0.28 M-98.08 39.5 C-88.62 24.55, -77.59 13.47, -65.12 -0.87 M-98.11 38.37 C-89.42 29.81, -82.46 19.85, -66.71 0.26 M-98.15 51.03 C-90.27 39.92, -78.13 28.19, -54.98 2.58 M-100.38 51.78 C-90.4 40.66, -81.29 31.49, -54.82 1.75 M-99.17 62.36 C-80.79 41.32, -60.46 18.56, -43.3 1.17 M-99.98 64.83 C-82.93 43.7, -66.44 24.37, -44.47 -0.66 M-102.16 77.26 C-84.11 58.78, -70.15 43.87, -33.72 -1.76 M-101.38 77.44 C-84.84 56.86, -67.29 38.32, -32.66 -0.71 M-99.67 89.67 C-81.75 69.6, -68.14 49.9, -24.63 -1.68 M-101.17 88.16 C-69.65 53.64, -38.6 18.48, -22.95 0.75 M-98.93 103.26 C-70.09 65.86, -40.54 30.04, -12.29 -1.35 M-100.45 100.97 C-67.74 63.2, -33.78 24.75, -11.81 0.53 M-102.42 115.39 C-75.55 84.39, -48.58 56.89, -2.63 0.91 M-100.59 114.47 C-73.32 82.78, -46.3 51.29, -1.76 0.06 M-98.36 123.35 C-73.43 94.86, -47.15 64.11, 4.24 4.29 M-97.08 121.4 C-58.94 80.04, -23.11 38.14, 5 3.72 M-87.81 120.39 C-55.21 85.38, -21.71 45.96, 6.86 15.91 M-85.79 121.88 C-57.67 88.35, -27.86 56.16, 6.03 16.52 M-75.07 123.03 C-50.8 91.99, -27.51 63.24, 6.37 29.5 M-76.64 122.04 C-44.15 85.04, -12.27 49.47, 5.47 28.05 M-65.06 122.2 C-37.39 90.85, -10.59 57.51, 7.71 39.08 M-66.27 122.32 C-40.42 93.17, -15.78 63.38, 5.92 39.37 M-54.43 123.28 C-39.4 102.44, -23.05 84.87, 6.22 50.61 M-54.34 122.82 C-35.56 101.52, -16.97 78.57, 7.81 51.9 M-44.01 122.6 C-23.83 101.6, -7.09 79.19, 5.92 64.5 M-43.29 121.05 C-32.31 109.03, -19.74 93.18, 6.44 63.25 M-35.36 119.94 C-26.55 113.06, -17.48 104.66, 6.94 75.62 M-34.08 121.66 C-25.46 112.74, -17.59 102.37, 6.14 76.38 M-23.2 123.04 C-10.96 110.17, -2.7 99.97, 10.92 82.97 M-21.94 122.2 C-13.53 110.45, -2.09 98.32, 12.42 80.65 M-12.01 120.11 C-5.02 114.24, 1.97 104.76, 19.53 86.39 M-12.12 120.86 C-0.68 108.73, 12.37 94.61, 19.27 85.63 M-0.42 120.27 C5.36 114.19, 13.89 103.45, 26.27 91.59 M-1.66 122.24 C3.35 114.41, 10.43 108.85, 23.69 91.49 M10.2 122.13 C16.93 114.76, 23.81 103.9, 29.47 98.24 M8.9 121.08 C14.1 116.74, 18.88 110.81, 31.41 96.33 M19.3 122.25 C23.73 114.24, 27.89 110.56, 35.08 101.24 M19.73 122.02 C22.08 117.66, 26.36 113.09, 36.5 102.62 M29.94 124.27 C33.43 119.35, 37.99 113.75, 42.8 108.15 M29.33 122.14 C32.39 118.04, 36.97 115, 42.21 107.99 M39.51 121.54 C44.17 118.18, 46.27 115.87, 49.11 112.71 M39.71 121.9 C42.52 119.8, 44.73 118.08, 47.63 113.42" stroke="#5c940d" stroke-width="1" fill="none"></path><path d="M-0.22 -1.67 C-25.04 0.27, -52.7 -0.75, -98.78 2.26 M0.28 -0.06 C-34.01 0.39, -69.3 0.26, -97.67 1.38 M-96.56 0.82 C-98.1 33.36, -98.91 62.98, -99.73 116.49 M-97.31 0.32 C-98.95 43.31, -100.27 84.79, -101.96 119.32 M-101.19 116.46 C-64.88 115.75, -31.31 118.48, 55.02 117.47 M-101.83 118.03 C-40.81 118.29, 19.37 117.16, 52.79 118.75 M52.9 118.65 C39.42 105.54, 25.05 94.22, 1.41 73.61 M53.16 118.87 C32.88 100.23, 12.27 81.57, 3.32 71.99 M2.77 72.67 C1.68 47.93, 1.95 28.34, 0.47 1.79 M2.83 71.71 C0.37 55.26, 0.06 37.29, 0.88 0.27 M0 0 C0 0, 0 0, 0 0 M0 0 C0 0, 0 0, 0 0" stroke="#0000" stroke-width="2" fill="none"></path></g></g><g stroke-linecap="round"><g transform="translate(2471.364244230919 188.38415960111524) rotate(0 -66.62559738412892 56.95333188814902)" fill-rule="evenodd"><path d="M-106.1 3.17 C-106.1 3.17, -106.1 3.17, -106.1 3.17 M-106.1 3.17 C-106.1 3.17, -106.1 3.17, -106.1 3.17 M-106.3 16.44 C-103.29 12.98, -102.25 10.57, -93.95 3.61 M-105.73 14.68 C-101.81 10.11, -98.6 7.33, -96.13 3.67 M-105.82 26.88 C-96.12 16.83, -88.74 8.68, -84.39 2.48 M-105.95 28.21 C-98.24 19.51, -91.99 11.16, -84.8 2.5 M-105.46 39.72 C-100.9 31.46, -92.43 23.25, -75.28 1.44 M-106.58 40.74 C-98.56 31.14, -91.98 23.39, -74.15 1.72 M-107.25 51.05 C-95.43 40, -84.25 28.43, -60.51 -0.41 M-106.49 52.63 C-96.46 40.74, -84.49 28.92, -61.35 2.02 M-108.57 64.95 C-86.94 42.23, -66.97 18.87, -50.5 1.66 M-106.1 64.85 C-89.13 43.1, -70.36 22.52, -52.34 0.65 M-106.99 79.3 C-90.67 58.48, -70.78 36.37, -42.77 0.47 M-106.81 77.13 C-82.65 49.24, -56.44 20.67, -41.72 0.62 M-130.11 118.45 C-102.89 82.92, -75.44 50.79, -31.37 2.61 M-131.62 117.29 C-94.41 77.05, -58.2 34.91, -28.94 1.13 M-118.69 117.2 C-86.89 76.24, -53.61 38.27, -20.38 2.22 M-120.98 116.1 C-91.6 83.59, -63.15 52, -18.5 0.15 M-108.72 116.57 C-88.21 92.99, -64.23 64.57, -7.45 0 M-109.64 117.69 C-82.07 84.37, -54.21 50.72, -8.31 0.09 M-97.64 115.12 C-65.79 80.92, -36.3 45.68, 1.41 2.43 M-99.6 117.65 C-78.06 92.57, -56.95 67.99, 0.83 1.87 M-89.94 115.72 C-59.41 84.81, -33.23 54.37, 0.46 14.38 M-88.44 116.58 C-65.2 89.52, -40.54 62.21, 1.07 14.16 M-76.63 117.03 C-54.3 86.57, -29.61 60.12, 2.24 28.59 M-77.62 116.3 C-61.29 97.5, -43.52 77.41, 0.8 27.77 M-66.8 116.99 C-46.53 93.3, -28.3 72.68, -0.08 39.95 M-66.68 116.1 C-51.1 97.92, -36.12 80.35, 0.21 38.5 M-55.06 116.38 C-39.7 96.07, -21.05 74.31, -0.36 51.88 M-55.51 116.99 C-37.54 96.31, -21.24 77.12, 0.93 52.44 M-45.07 118.23 C-29.08 98.5, -14.51 80.43, 0.97 63.36 M-46.62 115.98 C-31.88 101.37, -20.98 86.74, -0.29 63.59 M-37.07 115.39 C-23.56 103.98, -11.57 92.23, -1.24 75.4 M-35.34 116.27 C-26.35 106.36, -18.82 96.73, -0.47 77.24 M-23.3 118.01 C-18.35 109.06, -10.65 101.05, 0.35 89.82 M-24.14 115.57 C-18.84 110.41, -13.91 103.62, -1.97 89.36 M-15.48 117.01 C-9.22 112.09, -6.35 107.36, -1.35 103.88 M-14.77 116.31 C-8.65 111.94, -4.28 106.49, -2.08 102.16" stroke="#5c940d" stroke-width="1" fill="none"></path><path d="M-1.67 0.39 C-32.05 -1.03, -64.63 0.79, -104.61 4.21 M-0.06 0.7 C-27.06 1.19, -54.24 2.04, -105.49 2.78 M-106.05 2.68 C-105.83 33.3, -107.94 65.77, -109.12 81.02 M-106.55 3.95 C-106.15 22.81, -107.09 40.38, -106.28 79.17 M-109.14 80.37 C-118.44 90.27, -125.64 105.9, -135.05 115.18 M-107.57 79.76 C-115.34 90.01, -125.26 100.66, -133.76 113.17 M-133.86 113.8 C-87.33 114.36, -38.59 112.7, -1.96 114.92 M-133.64 112.93 C-94.8 113.44, -55.9 114.87, -3.58 113.07 M-2.89 112.33 C-3.7 90.31, -0.17 67.38, 1.79 -1.27 M-3.85 112.22 C-1.19 67.95, -0.74 24.84, 0.27 -0.89 M0 0 C0 0, 0 0, 0 0 M0 0 C0 0, 0 0, 0 0" stroke="#0000" stroke-width="2" fill="none"></path></g></g><g transform="translate(42.333333333334394 2739.4999999999977) rotate(0 463.5 25)"><text x="463.5" y="35" font-family="Virgil, Segoe UI Emoji" font-size="38.973124300111664px" fill="#b5b5b5" text-anchor="middle" style="white-space: pre;" direction="ltr">Licensed under CC BY-SA 4.0 (C) @gunnarmorling</text></g><g stroke-linecap="round"><g transform="translate(129.42142343285832 1641.922094310757) rotate(0 171.1503120945888 89.64027000856254)"><path d="M-0.49 -1.21 C97.93 -1.32, 199.42 -0.22, 342.51 -0.31 M-0.2 0.07 C111.95 -1.75, 225.24 -2.37, 343.78 -1.39 M344.45 -1.12 C342.83 53.68, 341.31 105.88, 342.14 143.67 M343.51 -0.04 C342.18 49.76, 343.43 100.66, 343.91 144.84 M341.7 142.14 C333.08 156.44, 319.92 167.96, 308.77 179.73 M343.74 143.44 C333.18 152.37, 324.86 162.4, 308.84 179.71 M308.04 179.52 C309.46 168.74, 309.15 162.35, 307.07 143.24 M308.42 178.36 C307.74 171.22, 307.44 161.66, 306.11 142.16 M305.35 143.26 C319.03 143.46, 330.63 141.72, 342.77 141.67 M307.32 142.39 C318.22 144.01, 330.99 142.25, 339.91 143.69 M340.22 141.93 C331.26 149.38, 324.9 159.01, 306.78 181.12 M341.21 143.46 C327.23 157.06, 314 171.76, 307.04 181.13 M308.07 179.16 C226.33 180.52, 142.44 180.37, -1.42 178.56 M307.33 180.65 C216.59 180.56, 128 180.39, -2.15 179.32 M-1.48 179.73 C-2.56 135.1, 1.42 88.98, 1.03 -1.59 M-1.27 177.95 C-1.75 111.89, -1.78 43.79, 0.84 -0.11" stroke="#000000" stroke-width="2" fill="none"></path></g></g><g stroke-linecap="round"><g transform="translate(668.8888888888891 772.2777777777737) rotate(0 1.1111111111122227 708.0555555555552)"><path d="M0 0 C0.74 473.86, 1.49 947.72, 2.22 1416.11 M0 0 C0.59 374.16, 1.17 748.32, 2.22 1416.11" stroke="#364fc7" stroke-width="4" fill="none"></path></g><g transform="translate(668.8888888888891 772.2777777777737) rotate(0 1.1111111111122227 708.0555555555552)"><path d="M10.3 28.17 C6.86 18.75, 3.41 9.32, 0 0 M10.3 28.17 C7.58 20.73, 4.86 13.29, 0 0" stroke="#364fc7" stroke-width="4" fill="none"></path></g><g transform="translate(668.8888888888891 772.2777777777737) rotate(0 1.1111111111122227 708.0555555555552)"><path d="M-10.22 28.21 C-6.8 18.77, -3.38 9.33, 0 0 M-10.22 28.21 C-7.52 20.75, -4.82 13.3, 0 0" stroke="#364fc7" stroke-width="4" fill="none"></path></g><g transform="translate(668.8888888888891 772.2777777777737) rotate(0 1.1111111111122227 708.0555555555552)"><path d="M-8.08 1387.94 C-4.63 1397.36, -1.19 1406.79, 2.22 1416.11 M-8.08 1387.94 C-5.36 1395.38, -2.64 1402.82, 2.22 1416.11" stroke="#364fc7" stroke-width="4" fill="none"></path></g><g transform="translate(668.8888888888891 772.2777777777737) rotate(0 1.1111111111122227 708.0555555555552)"><path d="M12.44 1387.9 C9.02 1397.34, 5.6 1406.78, 2.22 1416.11 M12.44 1387.9 C9.74 1395.36, 7.04 1402.81, 2.22 1416.11" stroke="#364fc7" stroke-width="4" fill="none"></path></g></g><g stroke-linecap="round"><g transform="translate(603.4484380322983 779.4999999999995) rotate(0 -33.11628904163581 93.79375212921195)"><path d="M-8.47 0 C-13.56 1.07, -31.45 2.13, -39.03 6.4 C-46.6 10.66, -50.87 17.88, -53.95 25.58 C-57.03 33.28, -56.91 25.58, -57.5 52.58 C-58.09 79.58, -57.5 165.09, -57.5 187.59 M-8.47 0 C-13.56 1.07, -31.45 2.13, -39.03 6.4 C-46.6 10.66, -50.87 17.88, -53.95 25.58 C-57.03 33.28, -56.91 25.58, -57.5 52.58 C-58.09 79.58, -57.5 165.09, -57.5 187.59" stroke="#c92a2a" stroke-width="4" fill="none"></path></g></g><g stroke-linecap="round"><g transform="translate(545.2378793040502 967.0875042584148) rotate(0 -11.368939652025574 8.526704739019351)"><path d="M0 0 C-3.79 2.84, -18.95 14.21, -22.74 17.05 M0 0 C-3.79 2.84, -18.95 14.21, -22.74 17.05" stroke="#c92a2a" stroke-width="4" fill="none"></path></g></g><g stroke-linecap="round"><g transform="translate(603.4484294482218 998.7120001568524) rotate(180.2123397016426 -35.03565133857046 97.74296274517997)"><path d="M-57.5 0 C-52.86 1.11, -36.56 2.22, -29.65 6.66 C-22.74 11.11, -18.85 18.64, -16.05 26.66 C-13.24 34.68, -13.35 26.66, -12.81 54.8 C-12.27 82.93, -12.81 172.04, -12.81 195.49 M-57.5 0 C-52.86 1.11, -36.56 2.22, -29.65 6.66 C-22.74 11.11, -18.85 18.64, -16.05 26.66 C-13.24 34.68, -13.35 26.66, -12.81 54.8 C-12.27 82.93, -12.81 172.04, -12.81 195.49" stroke="#c92a2a" stroke-width="4" fill="none"></path></g></g><g stroke-linecap="round"><g transform="translate(522.8926771919141 985.5545516274005) rotate(0 11.77844586646529 5.8658492908559765)"><path d="M0 0 C3.93 1.96, 19.63 9.78, 23.56 11.73 M0 0 C3.93 1.96, 19.63 9.78, 23.56 11.73" stroke="#c92a2a" stroke-width="4" fill="none"></path></g></g><g stroke-linecap="round"><g transform="translate(539.3327174965548 1699.0308042710853) rotate(0 -11.368939652025574 8.526704739019351)"><path d="M0 0 C-3.79 2.84, -18.95 14.21, -22.74 17.05 M0 0 C-3.79 2.84, -18.95 14.21, -22.74 17.05" stroke="#c92a2a" stroke-width="4" fill="none"></path></g></g><g stroke-linecap="round"><g transform="translate(516.9875153844191 1717.497851640071) rotate(0 11.77844586646529 5.8658492908559765)"><path d="M0 0 C3.93 1.96, 19.63 9.78, 23.56 11.73 M0 0 C3.93 1.96, 19.63 9.78, 23.56 11.73" stroke="#c92a2a" stroke-width="4" fill="none"></path></g></g><g stroke-linecap="round"><g transform="translate(592.5000000000014 1240.5000000000014) rotate(0 -25.88124999999991 228.33333333333326)"><path d="M0 0 C-4.44 0.56, -20 1.67, -26.67 3.33 C-33.33 5, -36.67 7.22, -40 10 C-43.33 12.78, -44.72 15, -46.67 20 C-48.61 25, -51.11 28.06, -51.67 40 C-52.22 51.94, -50.28 22.22, -50 91.67 C-49.72 161.11, -50 395.83, -50 456.67 M0 0 C-4.44 0.56, -20 1.67, -26.67 3.33 C-33.33 5, -36.67 7.22, -40 10 C-43.33 12.78, -44.72 15, -46.67 20 C-48.61 25, -51.11 28.06, -51.67 40 C-52.22 51.94, -50.28 22.22, -50 91.67 C-49.72 161.11, -50 395.83, -50 456.67" stroke="#c92a2a" stroke-width="4" fill="none"></path></g></g><g stroke-linecap="round"><g transform="translate(591.2500000000009 1729.250000000001) rotate(179.84927824111142 -28.38124999999968 228.33333333333326)"><path d="M-51.67 0 C-47.67 0.56, -33.67 1.67, -27.67 3.33 C-21.68 5, -18.68 7.22, -15.68 10 C-12.68 12.78, -11.43 15, -9.68 20 C-7.93 25, -5.68 28.06, -5.18 40 C-4.68 51.94, -6.43 22.22, -6.68 91.67 C-6.93 161.11, -6.68 395.83, -6.68 456.67 M-51.67 0 C-47.67 0.56, -33.67 1.67, -27.67 3.33 C-21.68 5, -18.68 7.22, -15.68 10 C-12.68 12.78, -11.43 15, -9.68 20 C-7.93 25, -5.68 28.06, -5.18 40 C-4.68 51.94, -6.43 22.22, -6.68 91.67 C-6.93 161.11, -6.68 395.83, -6.68 456.67" stroke="#c92a2a" stroke-width="4" fill="none"></path></g></g><g transform="translate(542.2500000000018 2253.6666666666742) rotate(0 131.5 75.5)"><text x="131.5" y="35.333333333333336" font-family="Virgil, Segoe UI Emoji" font-size="38.973124300111664px" fill="#364fc7" text-anchor="middle" style="white-space: pre;" direction="ltr">Larger effort</text><text x="131.5" y="85.66666666666667" font-family="Virgil, Segoe UI Emoji" font-size="38.973124300111664px" fill="#364fc7" text-anchor="middle" style="white-space: pre;" direction="ltr">for changes</text><text x="131.5" y="136" font-family="Virgil, Segoe UI Emoji" font-size="38.973124300111664px" fill="#364fc7" text-anchor="middle" style="white-space: pre;" direction="ltr">later on</text></g><g transform="translate(524.4166666666679 576.5000000000082) rotate(0 136 75.5)"><text x="136" y="35.333333333333336" font-family="Virgil, Segoe UI Emoji" font-size="38.973124300111664px" fill="#364fc7" text-anchor="middle" style="white-space: pre;" direction="ltr">Smaller effort</text><text x="136" y="85.66666666666667" font-family="Virgil, Segoe UI Emoji" font-size="38.973124300111664px" fill="#364fc7" text-anchor="middle" style="white-space: pre;" direction="ltr">for changes</text><text x="136" y="136" font-family="Virgil, Segoe UI Emoji" font-size="38.973124300111664px" fill="#364fc7" text-anchor="middle" style="white-space: pre;" direction="ltr">later on</text></g></svg>
